<mxfile host="65bd71144e">
    <diagram id="kREpBGBBF_1e8gVqkMsG" name="Page-1">
        <mxGraphModel dx="1890" dy="1820" grid="1" gridSize="10" guides="1" tooltips="1" connect="1" arrows="1" fold="1" page="1" pageScale="1" pageWidth="850" pageHeight="1100" math="0" shadow="0">
            <root>
                <mxCell id="0"/>
                <mxCell id="1" parent="0"/>
                <mxCell id="43" value="" style="childLayout=tableLayout;recursiveResize=0;shadow=0;fillColor=#ffe6cc;strokeColor=#d79b00;" vertex="1" parent="1">
                    <mxGeometry x="100" y="220" width="60" height="100" as="geometry"/>
                </mxCell>
                <mxCell id="44" value="" style="shape=tableRow;horizontal=0;startSize=0;swimlaneHead=0;swimlaneBody=0;top=0;left=0;bottom=0;right=0;dropTarget=0;collapsible=0;recursiveResize=0;expand=0;fontStyle=0;fillColor=none;strokeColor=inherit;" vertex="1" parent="43">
                    <mxGeometry width="60" height="20" as="geometry"/>
                </mxCell>
                <mxCell id="45" value="" style="connectable=0;recursiveResize=0;strokeColor=#d79b00;fillColor=#ffe6cc;align=center;whiteSpace=wrap;html=1;" vertex="1" parent="44">
                    <mxGeometry width="20" height="20" as="geometry">
                        <mxRectangle width="20" height="20" as="alternateBounds"/>
                    </mxGeometry>
                </mxCell>
                <mxCell id="46" value="" style="connectable=0;recursiveResize=0;strokeColor=#d79b00;fillColor=#ffe6cc;align=center;whiteSpace=wrap;html=1;" vertex="1" parent="44">
                    <mxGeometry x="20" width="20" height="20" as="geometry">
                        <mxRectangle width="20" height="20" as="alternateBounds"/>
                    </mxGeometry>
                </mxCell>
                <mxCell id="47" value="" style="connectable=0;recursiveResize=0;strokeColor=#d79b00;fillColor=#ffe6cc;align=center;whiteSpace=wrap;html=1;" vertex="1" parent="44">
                    <mxGeometry x="40" width="20" height="20" as="geometry">
                        <mxRectangle width="20" height="20" as="alternateBounds"/>
                    </mxGeometry>
                </mxCell>
                <mxCell id="48" value="" style="shape=tableRow;horizontal=0;startSize=0;swimlaneHead=0;swimlaneBody=0;top=0;left=0;bottom=0;right=0;dropTarget=0;collapsible=0;recursiveResize=0;expand=0;fontStyle=0;fillColor=none;strokeColor=inherit;" vertex="1" parent="43">
                    <mxGeometry y="20" width="60" height="20" as="geometry"/>
                </mxCell>
                <mxCell id="49" value="" style="connectable=0;recursiveResize=0;strokeColor=inherit;fillColor=none;align=center;whiteSpace=wrap;html=1;" vertex="1" parent="48">
                    <mxGeometry width="20" height="20" as="geometry">
                        <mxRectangle width="20" height="20" as="alternateBounds"/>
                    </mxGeometry>
                </mxCell>
                <mxCell id="50" value="" style="connectable=0;recursiveResize=0;strokeColor=inherit;fillColor=none;align=center;whiteSpace=wrap;html=1;" vertex="1" parent="48">
                    <mxGeometry x="20" width="20" height="20" as="geometry">
                        <mxRectangle width="20" height="20" as="alternateBounds"/>
                    </mxGeometry>
                </mxCell>
                <mxCell id="51" value="" style="connectable=0;recursiveResize=0;strokeColor=inherit;fillColor=none;align=center;whiteSpace=wrap;html=1;" vertex="1" parent="48">
                    <mxGeometry x="40" width="20" height="20" as="geometry">
                        <mxRectangle width="20" height="20" as="alternateBounds"/>
                    </mxGeometry>
                </mxCell>
                <mxCell id="52" value="" style="shape=tableRow;horizontal=0;startSize=0;swimlaneHead=0;swimlaneBody=0;top=0;left=0;bottom=0;right=0;dropTarget=0;collapsible=0;recursiveResize=0;expand=0;fontStyle=0;fillColor=none;strokeColor=inherit;" vertex="1" parent="43">
                    <mxGeometry y="40" width="60" height="20" as="geometry"/>
                </mxCell>
                <mxCell id="53" value="" style="connectable=0;recursiveResize=0;strokeColor=inherit;fillColor=none;align=center;whiteSpace=wrap;html=1;" vertex="1" parent="52">
                    <mxGeometry width="20" height="20" as="geometry">
                        <mxRectangle width="20" height="20" as="alternateBounds"/>
                    </mxGeometry>
                </mxCell>
                <mxCell id="54" value="" style="connectable=0;recursiveResize=0;strokeColor=#d79b00;fillColor=#ffe6cc;align=center;whiteSpace=wrap;html=1;" vertex="1" parent="52">
                    <mxGeometry x="20" width="20" height="20" as="geometry">
                        <mxRectangle width="20" height="20" as="alternateBounds"/>
                    </mxGeometry>
                </mxCell>
                <mxCell id="55" value="" style="connectable=0;recursiveResize=0;strokeColor=inherit;fillColor=none;align=center;whiteSpace=wrap;html=1;" vertex="1" parent="52">
                    <mxGeometry x="40" width="20" height="20" as="geometry">
                        <mxRectangle width="20" height="20" as="alternateBounds"/>
                    </mxGeometry>
                </mxCell>
                <mxCell id="56" style="shape=tableRow;horizontal=0;startSize=0;swimlaneHead=0;swimlaneBody=0;top=0;left=0;bottom=0;right=0;dropTarget=0;collapsible=0;recursiveResize=0;expand=0;fontStyle=0;fillColor=none;strokeColor=inherit;" vertex="1" parent="43">
                    <mxGeometry y="60" width="60" height="20" as="geometry"/>
                </mxCell>
                <mxCell id="57" value="" style="connectable=0;recursiveResize=0;strokeColor=inherit;fillColor=none;align=center;whiteSpace=wrap;html=1;" vertex="1" parent="56">
                    <mxGeometry width="20" height="20" as="geometry">
                        <mxRectangle width="20" height="20" as="alternateBounds"/>
                    </mxGeometry>
                </mxCell>
                <mxCell id="58" value="" style="connectable=0;recursiveResize=0;strokeColor=inherit;fillColor=none;align=center;whiteSpace=wrap;html=1;" vertex="1" parent="56">
                    <mxGeometry x="20" width="20" height="20" as="geometry">
                        <mxRectangle width="20" height="20" as="alternateBounds"/>
                    </mxGeometry>
                </mxCell>
                <mxCell id="59" value="" style="connectable=0;recursiveResize=0;strokeColor=inherit;fillColor=none;align=center;whiteSpace=wrap;html=1;" vertex="1" parent="56">
                    <mxGeometry x="40" width="20" height="20" as="geometry">
                        <mxRectangle width="20" height="20" as="alternateBounds"/>
                    </mxGeometry>
                </mxCell>
                <mxCell id="60" style="shape=tableRow;horizontal=0;startSize=0;swimlaneHead=0;swimlaneBody=0;top=0;left=0;bottom=0;right=0;dropTarget=0;collapsible=0;recursiveResize=0;expand=0;fontStyle=0;fillColor=none;strokeColor=inherit;" vertex="1" parent="43">
                    <mxGeometry y="80" width="60" height="20" as="geometry"/>
                </mxCell>
                <mxCell id="61" value="" style="connectable=0;recursiveResize=0;strokeColor=inherit;fillColor=none;align=center;whiteSpace=wrap;html=1;" vertex="1" parent="60">
                    <mxGeometry width="20" height="20" as="geometry">
                        <mxRectangle width="20" height="20" as="alternateBounds"/>
                    </mxGeometry>
                </mxCell>
                <mxCell id="62" value="" style="connectable=0;recursiveResize=0;strokeColor=inherit;fillColor=none;align=center;whiteSpace=wrap;html=1;" vertex="1" parent="60">
                    <mxGeometry x="20" width="20" height="20" as="geometry">
                        <mxRectangle width="20" height="20" as="alternateBounds"/>
                    </mxGeometry>
                </mxCell>
                <mxCell id="63" value="" style="connectable=0;recursiveResize=0;strokeColor=inherit;fillColor=none;align=center;whiteSpace=wrap;html=1;" vertex="1" parent="60">
                    <mxGeometry x="40" width="20" height="20" as="geometry">
                        <mxRectangle width="20" height="20" as="alternateBounds"/>
                    </mxGeometry>
                </mxCell>
                <mxCell id="281" value="" style="edgeStyle=none;html=1;" edge="1" parent="1" source="64" target="246">
                    <mxGeometry relative="1" as="geometry"/>
                </mxCell>
                <mxCell id="64" value="" style="childLayout=tableLayout;recursiveResize=0;shadow=0;fillColor=#dae8fc;strokeColor=#6c8ebf;" vertex="1" parent="1">
                    <mxGeometry x="100" y="100" width="60" height="100" as="geometry"/>
                </mxCell>
                <mxCell id="65" value="" style="shape=tableRow;horizontal=0;startSize=0;swimlaneHead=0;swimlaneBody=0;top=0;left=0;bottom=0;right=0;dropTarget=0;collapsible=0;recursiveResize=0;expand=0;fontStyle=0;fillColor=none;strokeColor=inherit;" vertex="1" parent="64">
                    <mxGeometry width="60" height="20" as="geometry"/>
                </mxCell>
                <mxCell id="66" value="" style="connectable=0;recursiveResize=0;strokeColor=#6c8ebf;fillColor=none;align=center;whiteSpace=wrap;html=1;" vertex="1" parent="65">
                    <mxGeometry width="20" height="20" as="geometry">
                        <mxRectangle width="20" height="20" as="alternateBounds"/>
                    </mxGeometry>
                </mxCell>
                <mxCell id="67" value="" style="connectable=0;recursiveResize=0;strokeColor=#6c8ebf;fillColor=none;align=center;whiteSpace=wrap;html=1;" vertex="1" parent="65">
                    <mxGeometry x="20" width="20" height="20" as="geometry">
                        <mxRectangle width="20" height="20" as="alternateBounds"/>
                    </mxGeometry>
                </mxCell>
                <mxCell id="68" value="" style="connectable=0;recursiveResize=0;strokeColor=#6c8ebf;fillColor=none;align=center;whiteSpace=wrap;html=1;" vertex="1" parent="65">
                    <mxGeometry x="40" width="20" height="20" as="geometry">
                        <mxRectangle width="20" height="20" as="alternateBounds"/>
                    </mxGeometry>
                </mxCell>
                <mxCell id="69" value="" style="shape=tableRow;horizontal=0;startSize=0;swimlaneHead=0;swimlaneBody=0;top=0;left=0;bottom=0;right=0;dropTarget=0;collapsible=0;recursiveResize=0;expand=0;fontStyle=0;fillColor=none;strokeColor=inherit;" vertex="1" parent="64">
                    <mxGeometry y="20" width="60" height="20" as="geometry"/>
                </mxCell>
                <mxCell id="70" value="" style="connectable=0;recursiveResize=0;strokeColor=inherit;fillColor=none;align=center;whiteSpace=wrap;html=1;" vertex="1" parent="69">
                    <mxGeometry width="20" height="20" as="geometry">
                        <mxRectangle width="20" height="20" as="alternateBounds"/>
                    </mxGeometry>
                </mxCell>
                <mxCell id="71" value="" style="connectable=0;recursiveResize=0;strokeColor=inherit;fillColor=none;align=center;whiteSpace=wrap;html=1;" vertex="1" parent="69">
                    <mxGeometry x="20" width="20" height="20" as="geometry">
                        <mxRectangle width="20" height="20" as="alternateBounds"/>
                    </mxGeometry>
                </mxCell>
                <mxCell id="72" value="" style="connectable=0;recursiveResize=0;strokeColor=inherit;fillColor=none;align=center;whiteSpace=wrap;html=1;" vertex="1" parent="69">
                    <mxGeometry x="40" width="20" height="20" as="geometry">
                        <mxRectangle width="20" height="20" as="alternateBounds"/>
                    </mxGeometry>
                </mxCell>
                <mxCell id="73" value="" style="shape=tableRow;horizontal=0;startSize=0;swimlaneHead=0;swimlaneBody=0;top=0;left=0;bottom=0;right=0;dropTarget=0;collapsible=0;recursiveResize=0;expand=0;fontStyle=0;fillColor=none;strokeColor=inherit;" vertex="1" parent="64">
                    <mxGeometry y="40" width="60" height="20" as="geometry"/>
                </mxCell>
                <mxCell id="74" value="" style="connectable=0;recursiveResize=0;strokeColor=inherit;fillColor=none;align=center;whiteSpace=wrap;html=1;" vertex="1" parent="73">
                    <mxGeometry width="20" height="20" as="geometry">
                        <mxRectangle width="20" height="20" as="alternateBounds"/>
                    </mxGeometry>
                </mxCell>
                <mxCell id="75" value="" style="connectable=0;recursiveResize=0;strokeColor=inherit;fillColor=none;align=center;whiteSpace=wrap;html=1;" vertex="1" parent="73">
                    <mxGeometry x="20" width="20" height="20" as="geometry">
                        <mxRectangle width="20" height="20" as="alternateBounds"/>
                    </mxGeometry>
                </mxCell>
                <mxCell id="76" value="" style="connectable=0;recursiveResize=0;strokeColor=inherit;fillColor=none;align=center;whiteSpace=wrap;html=1;" vertex="1" parent="73">
                    <mxGeometry x="40" width="20" height="20" as="geometry">
                        <mxRectangle width="20" height="20" as="alternateBounds"/>
                    </mxGeometry>
                </mxCell>
                <mxCell id="77" style="shape=tableRow;horizontal=0;startSize=0;swimlaneHead=0;swimlaneBody=0;top=0;left=0;bottom=0;right=0;dropTarget=0;collapsible=0;recursiveResize=0;expand=0;fontStyle=0;fillColor=none;strokeColor=inherit;" vertex="1" parent="64">
                    <mxGeometry y="60" width="60" height="20" as="geometry"/>
                </mxCell>
                <mxCell id="78" value="" style="connectable=0;recursiveResize=0;strokeColor=inherit;fillColor=none;align=center;whiteSpace=wrap;html=1;" vertex="1" parent="77">
                    <mxGeometry width="20" height="20" as="geometry">
                        <mxRectangle width="20" height="20" as="alternateBounds"/>
                    </mxGeometry>
                </mxCell>
                <mxCell id="79" value="" style="connectable=0;recursiveResize=0;strokeColor=inherit;fillColor=none;align=center;whiteSpace=wrap;html=1;" vertex="1" parent="77">
                    <mxGeometry x="20" width="20" height="20" as="geometry">
                        <mxRectangle width="20" height="20" as="alternateBounds"/>
                    </mxGeometry>
                </mxCell>
                <mxCell id="80" value="" style="connectable=0;recursiveResize=0;strokeColor=inherit;fillColor=none;align=center;whiteSpace=wrap;html=1;" vertex="1" parent="77">
                    <mxGeometry x="40" width="20" height="20" as="geometry">
                        <mxRectangle width="20" height="20" as="alternateBounds"/>
                    </mxGeometry>
                </mxCell>
                <mxCell id="81" style="shape=tableRow;horizontal=0;startSize=0;swimlaneHead=0;swimlaneBody=0;top=0;left=0;bottom=0;right=0;dropTarget=0;collapsible=0;recursiveResize=0;expand=0;fontStyle=0;fillColor=none;strokeColor=inherit;" vertex="1" parent="64">
                    <mxGeometry y="80" width="60" height="20" as="geometry"/>
                </mxCell>
                <mxCell id="82" value="" style="connectable=0;recursiveResize=0;strokeColor=inherit;fillColor=none;align=center;whiteSpace=wrap;html=1;" vertex="1" parent="81">
                    <mxGeometry width="20" height="20" as="geometry">
                        <mxRectangle width="20" height="20" as="alternateBounds"/>
                    </mxGeometry>
                </mxCell>
                <mxCell id="83" value="" style="connectable=0;recursiveResize=0;strokeColor=inherit;fillColor=none;align=center;whiteSpace=wrap;html=1;" vertex="1" parent="81">
                    <mxGeometry x="20" width="20" height="20" as="geometry">
                        <mxRectangle width="20" height="20" as="alternateBounds"/>
                    </mxGeometry>
                </mxCell>
                <mxCell id="84" value="" style="connectable=0;recursiveResize=0;strokeColor=inherit;fillColor=none;align=center;whiteSpace=wrap;html=1;" vertex="1" parent="81">
                    <mxGeometry x="40" width="20" height="20" as="geometry">
                        <mxRectangle width="20" height="20" as="alternateBounds"/>
                    </mxGeometry>
                </mxCell>
                <mxCell id="106" value="" style="childLayout=tableLayout;recursiveResize=0;shadow=0;fillColor=#e1d5e7;strokeColor=#9673a6;" vertex="1" parent="1">
                    <mxGeometry x="100" y="340" width="60" height="100" as="geometry"/>
                </mxCell>
                <mxCell id="107" value="" style="shape=tableRow;horizontal=0;startSize=0;swimlaneHead=0;swimlaneBody=0;top=0;left=0;bottom=0;right=0;dropTarget=0;collapsible=0;recursiveResize=0;expand=0;fontStyle=0;fillColor=none;strokeColor=inherit;" vertex="1" parent="106">
                    <mxGeometry width="60" height="20" as="geometry"/>
                </mxCell>
                <mxCell id="108" value="" style="connectable=0;recursiveResize=0;strokeColor=#9673a6;fillColor=#e1d5e7;align=center;whiteSpace=wrap;html=1;" vertex="1" parent="107">
                    <mxGeometry width="20" height="20" as="geometry">
                        <mxRectangle width="20" height="20" as="alternateBounds"/>
                    </mxGeometry>
                </mxCell>
                <mxCell id="109" value="" style="connectable=0;recursiveResize=0;strokeColor=#9673a6;fillColor=#e1d5e7;align=center;whiteSpace=wrap;html=1;" vertex="1" parent="107">
                    <mxGeometry x="20" width="20" height="20" as="geometry">
                        <mxRectangle width="20" height="20" as="alternateBounds"/>
                    </mxGeometry>
                </mxCell>
                <mxCell id="110" value="" style="connectable=0;recursiveResize=0;strokeColor=#9673a6;fillColor=#e1d5e7;align=center;whiteSpace=wrap;html=1;" vertex="1" parent="107">
                    <mxGeometry x="40" width="20" height="20" as="geometry">
                        <mxRectangle width="20" height="20" as="alternateBounds"/>
                    </mxGeometry>
                </mxCell>
                <mxCell id="111" value="" style="shape=tableRow;horizontal=0;startSize=0;swimlaneHead=0;swimlaneBody=0;top=0;left=0;bottom=0;right=0;dropTarget=0;collapsible=0;recursiveResize=0;expand=0;fontStyle=0;fillColor=none;strokeColor=inherit;" vertex="1" parent="106">
                    <mxGeometry y="20" width="60" height="20" as="geometry"/>
                </mxCell>
                <mxCell id="112" value="" style="connectable=0;recursiveResize=0;strokeColor=inherit;fillColor=none;align=center;whiteSpace=wrap;html=1;" vertex="1" parent="111">
                    <mxGeometry width="20" height="20" as="geometry">
                        <mxRectangle width="20" height="20" as="alternateBounds"/>
                    </mxGeometry>
                </mxCell>
                <mxCell id="113" value="" style="connectable=0;recursiveResize=0;strokeColor=inherit;fillColor=none;align=center;whiteSpace=wrap;html=1;" vertex="1" parent="111">
                    <mxGeometry x="20" width="20" height="20" as="geometry">
                        <mxRectangle width="20" height="20" as="alternateBounds"/>
                    </mxGeometry>
                </mxCell>
                <mxCell id="114" value="" style="connectable=0;recursiveResize=0;strokeColor=inherit;fillColor=none;align=center;whiteSpace=wrap;html=1;" vertex="1" parent="111">
                    <mxGeometry x="40" width="20" height="20" as="geometry">
                        <mxRectangle width="20" height="20" as="alternateBounds"/>
                    </mxGeometry>
                </mxCell>
                <mxCell id="115" value="" style="shape=tableRow;horizontal=0;startSize=0;swimlaneHead=0;swimlaneBody=0;top=0;left=0;bottom=0;right=0;dropTarget=0;collapsible=0;recursiveResize=0;expand=0;fontStyle=0;fillColor=none;strokeColor=inherit;" vertex="1" parent="106">
                    <mxGeometry y="40" width="60" height="20" as="geometry"/>
                </mxCell>
                <mxCell id="116" value="" style="connectable=0;recursiveResize=0;strokeColor=inherit;fillColor=none;align=center;whiteSpace=wrap;html=1;" vertex="1" parent="115">
                    <mxGeometry width="20" height="20" as="geometry">
                        <mxRectangle width="20" height="20" as="alternateBounds"/>
                    </mxGeometry>
                </mxCell>
                <mxCell id="117" value="" style="connectable=0;recursiveResize=0;strokeColor=inherit;fillColor=none;align=center;whiteSpace=wrap;html=1;" vertex="1" parent="115">
                    <mxGeometry x="20" width="20" height="20" as="geometry">
                        <mxRectangle width="20" height="20" as="alternateBounds"/>
                    </mxGeometry>
                </mxCell>
                <mxCell id="118" value="" style="connectable=0;recursiveResize=0;strokeColor=inherit;fillColor=none;align=center;whiteSpace=wrap;html=1;" vertex="1" parent="115">
                    <mxGeometry x="40" width="20" height="20" as="geometry">
                        <mxRectangle width="20" height="20" as="alternateBounds"/>
                    </mxGeometry>
                </mxCell>
                <mxCell id="119" style="shape=tableRow;horizontal=0;startSize=0;swimlaneHead=0;swimlaneBody=0;top=0;left=0;bottom=0;right=0;dropTarget=0;collapsible=0;recursiveResize=0;expand=0;fontStyle=0;fillColor=none;strokeColor=inherit;" vertex="1" parent="106">
                    <mxGeometry y="60" width="60" height="20" as="geometry"/>
                </mxCell>
                <mxCell id="120" value="" style="connectable=0;recursiveResize=0;strokeColor=inherit;fillColor=none;align=center;whiteSpace=wrap;html=1;" vertex="1" parent="119">
                    <mxGeometry width="20" height="20" as="geometry">
                        <mxRectangle width="20" height="20" as="alternateBounds"/>
                    </mxGeometry>
                </mxCell>
                <mxCell id="121" value="" style="connectable=0;recursiveResize=0;strokeColor=inherit;fillColor=none;align=center;whiteSpace=wrap;html=1;" vertex="1" parent="119">
                    <mxGeometry x="20" width="20" height="20" as="geometry">
                        <mxRectangle width="20" height="20" as="alternateBounds"/>
                    </mxGeometry>
                </mxCell>
                <mxCell id="122" value="" style="connectable=0;recursiveResize=0;strokeColor=inherit;fillColor=none;align=center;whiteSpace=wrap;html=1;" vertex="1" parent="119">
                    <mxGeometry x="40" width="20" height="20" as="geometry">
                        <mxRectangle width="20" height="20" as="alternateBounds"/>
                    </mxGeometry>
                </mxCell>
                <mxCell id="123" style="shape=tableRow;horizontal=0;startSize=0;swimlaneHead=0;swimlaneBody=0;top=0;left=0;bottom=0;right=0;dropTarget=0;collapsible=0;recursiveResize=0;expand=0;fontStyle=0;fillColor=none;strokeColor=inherit;" vertex="1" parent="106">
                    <mxGeometry y="80" width="60" height="20" as="geometry"/>
                </mxCell>
                <mxCell id="124" value="" style="connectable=0;recursiveResize=0;strokeColor=inherit;fillColor=none;align=center;whiteSpace=wrap;html=1;" vertex="1" parent="123">
                    <mxGeometry width="20" height="20" as="geometry">
                        <mxRectangle width="20" height="20" as="alternateBounds"/>
                    </mxGeometry>
                </mxCell>
                <mxCell id="125" value="" style="connectable=0;recursiveResize=0;strokeColor=inherit;fillColor=none;align=center;whiteSpace=wrap;html=1;" vertex="1" parent="123">
                    <mxGeometry x="20" width="20" height="20" as="geometry">
                        <mxRectangle width="20" height="20" as="alternateBounds"/>
                    </mxGeometry>
                </mxCell>
                <mxCell id="126" value="" style="connectable=0;recursiveResize=0;strokeColor=inherit;fillColor=none;align=center;whiteSpace=wrap;html=1;" vertex="1" parent="123">
                    <mxGeometry x="40" width="20" height="20" as="geometry">
                        <mxRectangle width="20" height="20" as="alternateBounds"/>
                    </mxGeometry>
                </mxCell>
                <mxCell id="163" value="" style="shape=table;startSize=0;container=1;collapsible=0;childLayout=tableLayout;fillColor=#f8cecc;strokeColor=#b85450;" vertex="1" parent="1">
                    <mxGeometry x="300" y="100" width="100" height="100" as="geometry"/>
                </mxCell>
                <mxCell id="164" value="" style="shape=tableRow;horizontal=0;startSize=0;swimlaneHead=0;swimlaneBody=0;strokeColor=inherit;top=0;left=0;bottom=0;right=0;collapsible=0;dropTarget=0;fillColor=none;points=[[0,0.5],[1,0.5]];portConstraint=eastwest;" vertex="1" parent="163">
                    <mxGeometry width="100" height="20" as="geometry"/>
                </mxCell>
                <mxCell id="165" value="" style="shape=partialRectangle;html=1;whiteSpace=wrap;connectable=0;strokeColor=inherit;overflow=hidden;fillColor=none;top=0;left=0;bottom=0;right=0;pointerEvents=1;" vertex="1" parent="164">
                    <mxGeometry width="20" height="20" as="geometry">
                        <mxRectangle width="20" height="20" as="alternateBounds"/>
                    </mxGeometry>
                </mxCell>
                <mxCell id="166" value="" style="shape=partialRectangle;html=1;whiteSpace=wrap;connectable=0;strokeColor=inherit;overflow=hidden;fillColor=none;top=0;left=0;bottom=0;right=0;pointerEvents=1;" vertex="1" parent="164">
                    <mxGeometry x="20" width="20" height="20" as="geometry">
                        <mxRectangle width="20" height="20" as="alternateBounds"/>
                    </mxGeometry>
                </mxCell>
                <mxCell id="167" value="" style="shape=partialRectangle;html=1;whiteSpace=wrap;connectable=0;strokeColor=inherit;overflow=hidden;fillColor=none;top=0;left=0;bottom=0;right=0;pointerEvents=1;" vertex="1" parent="164">
                    <mxGeometry x="40" width="20" height="20" as="geometry">
                        <mxRectangle width="20" height="20" as="alternateBounds"/>
                    </mxGeometry>
                </mxCell>
                <mxCell id="168" value="" style="shape=partialRectangle;html=1;whiteSpace=wrap;connectable=0;strokeColor=inherit;overflow=hidden;fillColor=none;top=0;left=0;bottom=0;right=0;pointerEvents=1;" vertex="1" parent="164">
                    <mxGeometry x="60" width="20" height="20" as="geometry">
                        <mxRectangle width="20" height="20" as="alternateBounds"/>
                    </mxGeometry>
                </mxCell>
                <mxCell id="169" value="" style="shape=partialRectangle;html=1;whiteSpace=wrap;connectable=0;strokeColor=inherit;overflow=hidden;fillColor=none;top=0;left=0;bottom=0;right=0;pointerEvents=1;" vertex="1" parent="164">
                    <mxGeometry x="80" width="20" height="20" as="geometry">
                        <mxRectangle width="20" height="20" as="alternateBounds"/>
                    </mxGeometry>
                </mxCell>
                <mxCell id="170" value="" style="shape=tableRow;horizontal=0;startSize=0;swimlaneHead=0;swimlaneBody=0;strokeColor=inherit;top=0;left=0;bottom=0;right=0;collapsible=0;dropTarget=0;fillColor=none;points=[[0,0.5],[1,0.5]];portConstraint=eastwest;" vertex="1" parent="163">
                    <mxGeometry y="20" width="100" height="20" as="geometry"/>
                </mxCell>
                <mxCell id="171" value="" style="shape=partialRectangle;html=1;whiteSpace=wrap;connectable=0;strokeColor=inherit;overflow=hidden;fillColor=none;top=0;left=0;bottom=0;right=0;pointerEvents=1;" vertex="1" parent="170">
                    <mxGeometry width="20" height="20" as="geometry">
                        <mxRectangle width="20" height="20" as="alternateBounds"/>
                    </mxGeometry>
                </mxCell>
                <mxCell id="172" value="" style="shape=partialRectangle;html=1;whiteSpace=wrap;connectable=0;strokeColor=inherit;overflow=hidden;fillColor=none;top=0;left=0;bottom=0;right=0;pointerEvents=1;" vertex="1" parent="170">
                    <mxGeometry x="20" width="20" height="20" as="geometry">
                        <mxRectangle width="20" height="20" as="alternateBounds"/>
                    </mxGeometry>
                </mxCell>
                <mxCell id="173" value="" style="shape=partialRectangle;html=1;whiteSpace=wrap;connectable=0;strokeColor=inherit;overflow=hidden;fillColor=none;top=0;left=0;bottom=0;right=0;pointerEvents=1;" vertex="1" parent="170">
                    <mxGeometry x="40" width="20" height="20" as="geometry">
                        <mxRectangle width="20" height="20" as="alternateBounds"/>
                    </mxGeometry>
                </mxCell>
                <mxCell id="174" value="" style="shape=partialRectangle;html=1;whiteSpace=wrap;connectable=0;strokeColor=inherit;overflow=hidden;fillColor=none;top=0;left=0;bottom=0;right=0;pointerEvents=1;" vertex="1" parent="170">
                    <mxGeometry x="60" width="20" height="20" as="geometry">
                        <mxRectangle width="20" height="20" as="alternateBounds"/>
                    </mxGeometry>
                </mxCell>
                <mxCell id="175" value="" style="shape=partialRectangle;html=1;whiteSpace=wrap;connectable=0;strokeColor=inherit;overflow=hidden;fillColor=none;top=0;left=0;bottom=0;right=0;pointerEvents=1;" vertex="1" parent="170">
                    <mxGeometry x="80" width="20" height="20" as="geometry">
                        <mxRectangle width="20" height="20" as="alternateBounds"/>
                    </mxGeometry>
                </mxCell>
                <mxCell id="176" value="" style="shape=tableRow;horizontal=0;startSize=0;swimlaneHead=0;swimlaneBody=0;strokeColor=inherit;top=0;left=0;bottom=0;right=0;collapsible=0;dropTarget=0;fillColor=none;points=[[0,0.5],[1,0.5]];portConstraint=eastwest;" vertex="1" parent="163">
                    <mxGeometry y="40" width="100" height="20" as="geometry"/>
                </mxCell>
                <mxCell id="177" value="" style="shape=partialRectangle;html=1;whiteSpace=wrap;connectable=0;strokeColor=inherit;overflow=hidden;fillColor=none;top=0;left=0;bottom=0;right=0;pointerEvents=1;" vertex="1" parent="176">
                    <mxGeometry width="20" height="20" as="geometry">
                        <mxRectangle width="20" height="20" as="alternateBounds"/>
                    </mxGeometry>
                </mxCell>
                <mxCell id="178" value="" style="shape=partialRectangle;html=1;whiteSpace=wrap;connectable=0;strokeColor=inherit;overflow=hidden;fillColor=none;top=0;left=0;bottom=0;right=0;pointerEvents=1;" vertex="1" parent="176">
                    <mxGeometry x="20" width="20" height="20" as="geometry">
                        <mxRectangle width="20" height="20" as="alternateBounds"/>
                    </mxGeometry>
                </mxCell>
                <mxCell id="179" value="" style="shape=partialRectangle;html=1;whiteSpace=wrap;connectable=0;strokeColor=inherit;overflow=hidden;fillColor=none;top=0;left=0;bottom=0;right=0;pointerEvents=1;" vertex="1" parent="176">
                    <mxGeometry x="40" width="20" height="20" as="geometry">
                        <mxRectangle width="20" height="20" as="alternateBounds"/>
                    </mxGeometry>
                </mxCell>
                <mxCell id="180" value="" style="shape=partialRectangle;html=1;whiteSpace=wrap;connectable=0;strokeColor=inherit;overflow=hidden;fillColor=none;top=0;left=0;bottom=0;right=0;pointerEvents=1;" vertex="1" parent="176">
                    <mxGeometry x="60" width="20" height="20" as="geometry">
                        <mxRectangle width="20" height="20" as="alternateBounds"/>
                    </mxGeometry>
                </mxCell>
                <mxCell id="181" value="" style="shape=partialRectangle;html=1;whiteSpace=wrap;connectable=0;strokeColor=inherit;overflow=hidden;fillColor=none;top=0;left=0;bottom=0;right=0;pointerEvents=1;" vertex="1" parent="176">
                    <mxGeometry x="80" width="20" height="20" as="geometry">
                        <mxRectangle width="20" height="20" as="alternateBounds"/>
                    </mxGeometry>
                </mxCell>
                <mxCell id="182" value="" style="shape=tableRow;horizontal=0;startSize=0;swimlaneHead=0;swimlaneBody=0;strokeColor=inherit;top=0;left=0;bottom=0;right=0;collapsible=0;dropTarget=0;fillColor=none;points=[[0,0.5],[1,0.5]];portConstraint=eastwest;" vertex="1" parent="163">
                    <mxGeometry y="60" width="100" height="20" as="geometry"/>
                </mxCell>
                <mxCell id="183" value="" style="shape=partialRectangle;html=1;whiteSpace=wrap;connectable=0;strokeColor=inherit;overflow=hidden;fillColor=none;top=0;left=0;bottom=0;right=0;pointerEvents=1;" vertex="1" parent="182">
                    <mxGeometry width="20" height="20" as="geometry">
                        <mxRectangle width="20" height="20" as="alternateBounds"/>
                    </mxGeometry>
                </mxCell>
                <mxCell id="184" value="" style="shape=partialRectangle;html=1;whiteSpace=wrap;connectable=0;strokeColor=inherit;overflow=hidden;fillColor=none;top=0;left=0;bottom=0;right=0;pointerEvents=1;" vertex="1" parent="182">
                    <mxGeometry x="20" width="20" height="20" as="geometry">
                        <mxRectangle width="20" height="20" as="alternateBounds"/>
                    </mxGeometry>
                </mxCell>
                <mxCell id="185" value="" style="shape=partialRectangle;html=1;whiteSpace=wrap;connectable=0;strokeColor=inherit;overflow=hidden;fillColor=none;top=0;left=0;bottom=0;right=0;pointerEvents=1;" vertex="1" parent="182">
                    <mxGeometry x="40" width="20" height="20" as="geometry">
                        <mxRectangle width="20" height="20" as="alternateBounds"/>
                    </mxGeometry>
                </mxCell>
                <mxCell id="186" value="" style="shape=partialRectangle;html=1;whiteSpace=wrap;connectable=0;strokeColor=inherit;overflow=hidden;fillColor=none;top=0;left=0;bottom=0;right=0;pointerEvents=1;" vertex="1" parent="182">
                    <mxGeometry x="60" width="20" height="20" as="geometry">
                        <mxRectangle width="20" height="20" as="alternateBounds"/>
                    </mxGeometry>
                </mxCell>
                <mxCell id="187" value="" style="shape=partialRectangle;html=1;whiteSpace=wrap;connectable=0;strokeColor=inherit;overflow=hidden;fillColor=none;top=0;left=0;bottom=0;right=0;pointerEvents=1;" vertex="1" parent="182">
                    <mxGeometry x="80" width="20" height="20" as="geometry">
                        <mxRectangle width="20" height="20" as="alternateBounds"/>
                    </mxGeometry>
                </mxCell>
                <mxCell id="188" value="" style="shape=tableRow;horizontal=0;startSize=0;swimlaneHead=0;swimlaneBody=0;strokeColor=inherit;top=0;left=0;bottom=0;right=0;collapsible=0;dropTarget=0;fillColor=none;points=[[0,0.5],[1,0.5]];portConstraint=eastwest;" vertex="1" parent="163">
                    <mxGeometry y="80" width="100" height="20" as="geometry"/>
                </mxCell>
                <mxCell id="189" value="" style="shape=partialRectangle;html=1;whiteSpace=wrap;connectable=0;strokeColor=inherit;overflow=hidden;fillColor=none;top=0;left=0;bottom=0;right=0;pointerEvents=1;" vertex="1" parent="188">
                    <mxGeometry width="20" height="20" as="geometry">
                        <mxRectangle width="20" height="20" as="alternateBounds"/>
                    </mxGeometry>
                </mxCell>
                <mxCell id="190" value="" style="shape=partialRectangle;html=1;whiteSpace=wrap;connectable=0;strokeColor=inherit;overflow=hidden;fillColor=none;top=0;left=0;bottom=0;right=0;pointerEvents=1;" vertex="1" parent="188">
                    <mxGeometry x="20" width="20" height="20" as="geometry">
                        <mxRectangle width="20" height="20" as="alternateBounds"/>
                    </mxGeometry>
                </mxCell>
                <mxCell id="191" value="" style="shape=partialRectangle;html=1;whiteSpace=wrap;connectable=0;strokeColor=inherit;overflow=hidden;fillColor=none;top=0;left=0;bottom=0;right=0;pointerEvents=1;" vertex="1" parent="188">
                    <mxGeometry x="40" width="20" height="20" as="geometry">
                        <mxRectangle width="20" height="20" as="alternateBounds"/>
                    </mxGeometry>
                </mxCell>
                <mxCell id="192" value="" style="shape=partialRectangle;html=1;whiteSpace=wrap;connectable=0;strokeColor=inherit;overflow=hidden;fillColor=none;top=0;left=0;bottom=0;right=0;pointerEvents=1;" vertex="1" parent="188">
                    <mxGeometry x="60" width="20" height="20" as="geometry">
                        <mxRectangle width="20" height="20" as="alternateBounds"/>
                    </mxGeometry>
                </mxCell>
                <mxCell id="193" value="" style="shape=partialRectangle;html=1;whiteSpace=wrap;connectable=0;strokeColor=inherit;overflow=hidden;fillColor=none;top=0;left=0;bottom=0;right=0;pointerEvents=1;" vertex="1" parent="188">
                    <mxGeometry x="80" width="20" height="20" as="geometry">
                        <mxRectangle width="20" height="20" as="alternateBounds"/>
                    </mxGeometry>
                </mxCell>
                <mxCell id="194" value="" style="childLayout=tableLayout;recursiveResize=0;shadow=0;fillColor=#d5e8d4;strokeColor=#82b366;" vertex="1" parent="1">
                    <mxGeometry x="400" y="340" width="60" height="100" as="geometry"/>
                </mxCell>
                <mxCell id="195" value="" style="shape=tableRow;horizontal=0;startSize=0;swimlaneHead=0;swimlaneBody=0;top=0;left=0;bottom=0;right=0;dropTarget=0;collapsible=0;recursiveResize=0;expand=0;fontStyle=0;fillColor=#d5e8d4;strokeColor=#82b366;" vertex="1" parent="194">
                    <mxGeometry width="60" height="20" as="geometry"/>
                </mxCell>
                <mxCell id="196" value="" style="connectable=0;recursiveResize=0;strokeColor=#82b366;fillColor=#d5e8d4;align=center;whiteSpace=wrap;html=1;" vertex="1" parent="195">
                    <mxGeometry width="20" height="20" as="geometry">
                        <mxRectangle width="20" height="20" as="alternateBounds"/>
                    </mxGeometry>
                </mxCell>
                <mxCell id="197" value="" style="connectable=0;recursiveResize=0;strokeColor=#82b366;fillColor=#d5e8d4;align=center;whiteSpace=wrap;html=1;" vertex="1" parent="195">
                    <mxGeometry x="20" width="20" height="20" as="geometry">
                        <mxRectangle width="20" height="20" as="alternateBounds"/>
                    </mxGeometry>
                </mxCell>
                <mxCell id="198" value="" style="connectable=0;recursiveResize=0;strokeColor=#82b366;fillColor=#d5e8d4;align=center;whiteSpace=wrap;html=1;" vertex="1" parent="195">
                    <mxGeometry x="40" width="20" height="20" as="geometry">
                        <mxRectangle width="20" height="20" as="alternateBounds"/>
                    </mxGeometry>
                </mxCell>
                <mxCell id="199" value="" style="shape=tableRow;horizontal=0;startSize=0;swimlaneHead=0;swimlaneBody=0;top=0;left=0;bottom=0;right=0;dropTarget=0;collapsible=0;recursiveResize=0;expand=0;fontStyle=0;fillColor=#d5e8d4;strokeColor=#82b366;" vertex="1" parent="194">
                    <mxGeometry y="20" width="60" height="20" as="geometry"/>
                </mxCell>
                <mxCell id="200" value="" style="connectable=0;recursiveResize=0;strokeColor=#82b366;fillColor=#d5e8d4;align=center;whiteSpace=wrap;html=1;" vertex="1" parent="199">
                    <mxGeometry width="20" height="20" as="geometry">
                        <mxRectangle width="20" height="20" as="alternateBounds"/>
                    </mxGeometry>
                </mxCell>
                <mxCell id="201" value="" style="connectable=0;recursiveResize=0;strokeColor=#82b366;fillColor=#d5e8d4;align=center;whiteSpace=wrap;html=1;" vertex="1" parent="199">
                    <mxGeometry x="20" width="20" height="20" as="geometry">
                        <mxRectangle width="20" height="20" as="alternateBounds"/>
                    </mxGeometry>
                </mxCell>
                <mxCell id="202" value="" style="connectable=0;recursiveResize=0;strokeColor=#82b366;fillColor=#d5e8d4;align=center;whiteSpace=wrap;html=1;" vertex="1" parent="199">
                    <mxGeometry x="40" width="20" height="20" as="geometry">
                        <mxRectangle width="20" height="20" as="alternateBounds"/>
                    </mxGeometry>
                </mxCell>
                <mxCell id="203" value="" style="shape=tableRow;horizontal=0;startSize=0;swimlaneHead=0;swimlaneBody=0;top=0;left=0;bottom=0;right=0;dropTarget=0;collapsible=0;recursiveResize=0;expand=0;fontStyle=0;fillColor=#d5e8d4;strokeColor=#82b366;" vertex="1" parent="194">
                    <mxGeometry y="40" width="60" height="20" as="geometry"/>
                </mxCell>
                <mxCell id="204" value="" style="connectable=0;recursiveResize=0;strokeColor=#82b366;fillColor=#d5e8d4;align=center;whiteSpace=wrap;html=1;" vertex="1" parent="203">
                    <mxGeometry width="20" height="20" as="geometry">
                        <mxRectangle width="20" height="20" as="alternateBounds"/>
                    </mxGeometry>
                </mxCell>
                <mxCell id="205" value="" style="connectable=0;recursiveResize=0;strokeColor=#82b366;fillColor=#d5e8d4;align=center;whiteSpace=wrap;html=1;" vertex="1" parent="203">
                    <mxGeometry x="20" width="20" height="20" as="geometry">
                        <mxRectangle width="20" height="20" as="alternateBounds"/>
                    </mxGeometry>
                </mxCell>
                <mxCell id="206" value="" style="connectable=0;recursiveResize=0;strokeColor=#82b366;fillColor=#d5e8d4;align=center;whiteSpace=wrap;html=1;" vertex="1" parent="203">
                    <mxGeometry x="40" width="20" height="20" as="geometry">
                        <mxRectangle width="20" height="20" as="alternateBounds"/>
                    </mxGeometry>
                </mxCell>
                <mxCell id="207" style="shape=tableRow;horizontal=0;startSize=0;swimlaneHead=0;swimlaneBody=0;top=0;left=0;bottom=0;right=0;dropTarget=0;collapsible=0;recursiveResize=0;expand=0;fontStyle=0;fillColor=#d5e8d4;strokeColor=#82b366;" vertex="1" parent="194">
                    <mxGeometry y="60" width="60" height="20" as="geometry"/>
                </mxCell>
                <mxCell id="208" value="" style="connectable=0;recursiveResize=0;strokeColor=#82b366;fillColor=#d5e8d4;align=center;whiteSpace=wrap;html=1;" vertex="1" parent="207">
                    <mxGeometry width="20" height="20" as="geometry">
                        <mxRectangle width="20" height="20" as="alternateBounds"/>
                    </mxGeometry>
                </mxCell>
                <mxCell id="209" value="" style="connectable=0;recursiveResize=0;strokeColor=#82b366;fillColor=#d5e8d4;align=center;whiteSpace=wrap;html=1;" vertex="1" parent="207">
                    <mxGeometry x="20" width="20" height="20" as="geometry">
                        <mxRectangle width="20" height="20" as="alternateBounds"/>
                    </mxGeometry>
                </mxCell>
                <mxCell id="210" value="" style="connectable=0;recursiveResize=0;strokeColor=#82b366;fillColor=#d5e8d4;align=center;whiteSpace=wrap;html=1;" vertex="1" parent="207">
                    <mxGeometry x="40" width="20" height="20" as="geometry">
                        <mxRectangle width="20" height="20" as="alternateBounds"/>
                    </mxGeometry>
                </mxCell>
                <mxCell id="211" style="shape=tableRow;horizontal=0;startSize=0;swimlaneHead=0;swimlaneBody=0;top=0;left=0;bottom=0;right=0;dropTarget=0;collapsible=0;recursiveResize=0;expand=0;fontStyle=0;fillColor=#d5e8d4;strokeColor=#82b366;" vertex="1" parent="194">
                    <mxGeometry y="80" width="60" height="20" as="geometry"/>
                </mxCell>
                <mxCell id="212" value="" style="connectable=0;recursiveResize=0;strokeColor=#82b366;fillColor=#d5e8d4;align=center;whiteSpace=wrap;html=1;" vertex="1" parent="211">
                    <mxGeometry width="20" height="20" as="geometry">
                        <mxRectangle width="20" height="20" as="alternateBounds"/>
                    </mxGeometry>
                </mxCell>
                <mxCell id="213" value="" style="connectable=0;recursiveResize=0;strokeColor=#82b366;fillColor=#d5e8d4;align=center;whiteSpace=wrap;html=1;" vertex="1" parent="211">
                    <mxGeometry x="20" width="20" height="20" as="geometry">
                        <mxRectangle width="20" height="20" as="alternateBounds"/>
                    </mxGeometry>
                </mxCell>
                <mxCell id="214" value="" style="connectable=0;recursiveResize=0;strokeColor=#82b366;fillColor=#d5e8d4;align=center;whiteSpace=wrap;html=1;" vertex="1" parent="211">
                    <mxGeometry x="40" width="20" height="20" as="geometry">
                        <mxRectangle width="20" height="20" as="alternateBounds"/>
                    </mxGeometry>
                </mxCell>
                <mxCell id="215" value="" style="childLayout=tableLayout;recursiveResize=0;shadow=0;fillColor=#ffe6cc;strokeColor=#d79b00;direction=north;" vertex="1" parent="1">
                    <mxGeometry x="200" y="240" width="100" height="60" as="geometry"/>
                </mxCell>
                <mxCell id="216" value="" style="shape=tableRow;horizontal=0;startSize=0;swimlaneHead=0;swimlaneBody=0;top=0;left=0;bottom=0;right=0;dropTarget=0;collapsible=0;recursiveResize=0;expand=0;fontStyle=0;fillColor=none;strokeColor=inherit;" vertex="1" parent="215">
                    <mxGeometry width="100" height="20" as="geometry"/>
                </mxCell>
                <mxCell id="217" value="" style="connectable=0;recursiveResize=0;strokeColor=#d79b00;fillColor=#ffe6cc;align=center;whiteSpace=wrap;html=1;" vertex="1" parent="216">
                    <mxGeometry width="20" height="20" as="geometry">
                        <mxRectangle width="20" height="20" as="alternateBounds"/>
                    </mxGeometry>
                </mxCell>
                <mxCell id="218" value="" style="connectable=0;recursiveResize=0;strokeColor=#d79b00;fillColor=#ffe6cc;align=center;whiteSpace=wrap;html=1;" vertex="1" parent="216">
                    <mxGeometry x="20" width="20" height="20" as="geometry">
                        <mxRectangle width="20" height="20" as="alternateBounds"/>
                    </mxGeometry>
                </mxCell>
                <mxCell id="219" value="" style="connectable=0;recursiveResize=0;strokeColor=#d79b00;fillColor=#ffe6cc;align=center;whiteSpace=wrap;html=1;" vertex="1" parent="216">
                    <mxGeometry x="40" width="20" height="20" as="geometry">
                        <mxRectangle width="20" height="20" as="alternateBounds"/>
                    </mxGeometry>
                </mxCell>
                <mxCell id="236" style="connectable=0;recursiveResize=0;strokeColor=#d79b00;fillColor=#ffe6cc;align=center;whiteSpace=wrap;html=1;" vertex="1" parent="216">
                    <mxGeometry x="60" width="20" height="20" as="geometry">
                        <mxRectangle width="20" height="20" as="alternateBounds"/>
                    </mxGeometry>
                </mxCell>
                <mxCell id="241" style="connectable=0;recursiveResize=0;strokeColor=#d79b00;fillColor=#ffe6cc;align=center;whiteSpace=wrap;html=1;" vertex="1" parent="216">
                    <mxGeometry x="80" width="20" height="20" as="geometry">
                        <mxRectangle width="20" height="20" as="alternateBounds"/>
                    </mxGeometry>
                </mxCell>
                <mxCell id="220" value="" style="shape=tableRow;horizontal=0;startSize=0;swimlaneHead=0;swimlaneBody=0;top=0;left=0;bottom=0;right=0;dropTarget=0;collapsible=0;recursiveResize=0;expand=0;fontStyle=0;fillColor=none;strokeColor=inherit;" vertex="1" parent="215">
                    <mxGeometry y="20" width="100" height="20" as="geometry"/>
                </mxCell>
                <mxCell id="221" value="" style="connectable=0;recursiveResize=0;strokeColor=inherit;fillColor=none;align=center;whiteSpace=wrap;html=1;" vertex="1" parent="220">
                    <mxGeometry width="20" height="20" as="geometry">
                        <mxRectangle width="20" height="20" as="alternateBounds"/>
                    </mxGeometry>
                </mxCell>
                <mxCell id="222" value="" style="connectable=0;recursiveResize=0;strokeColor=inherit;fillColor=none;align=center;whiteSpace=wrap;html=1;" vertex="1" parent="220">
                    <mxGeometry x="20" width="20" height="20" as="geometry">
                        <mxRectangle width="20" height="20" as="alternateBounds"/>
                    </mxGeometry>
                </mxCell>
                <mxCell id="223" value="" style="connectable=0;recursiveResize=0;strokeColor=inherit;fillColor=none;align=center;whiteSpace=wrap;html=1;" vertex="1" parent="220">
                    <mxGeometry x="40" width="20" height="20" as="geometry">
                        <mxRectangle width="20" height="20" as="alternateBounds"/>
                    </mxGeometry>
                </mxCell>
                <mxCell id="237" style="connectable=0;recursiveResize=0;strokeColor=inherit;fillColor=none;align=center;whiteSpace=wrap;html=1;" vertex="1" parent="220">
                    <mxGeometry x="60" width="20" height="20" as="geometry">
                        <mxRectangle width="20" height="20" as="alternateBounds"/>
                    </mxGeometry>
                </mxCell>
                <mxCell id="242" style="connectable=0;recursiveResize=0;strokeColor=inherit;fillColor=none;align=center;whiteSpace=wrap;html=1;" vertex="1" parent="220">
                    <mxGeometry x="80" width="20" height="20" as="geometry">
                        <mxRectangle width="20" height="20" as="alternateBounds"/>
                    </mxGeometry>
                </mxCell>
                <mxCell id="224" value="" style="shape=tableRow;horizontal=0;startSize=0;swimlaneHead=0;swimlaneBody=0;top=0;left=0;bottom=0;right=0;dropTarget=0;collapsible=0;recursiveResize=0;expand=0;fontStyle=0;fillColor=none;strokeColor=inherit;" vertex="1" parent="215">
                    <mxGeometry y="40" width="100" height="20" as="geometry"/>
                </mxCell>
                <mxCell id="225" value="" style="connectable=0;recursiveResize=0;strokeColor=inherit;fillColor=none;align=center;whiteSpace=wrap;html=1;" vertex="1" parent="224">
                    <mxGeometry width="20" height="20" as="geometry">
                        <mxRectangle width="20" height="20" as="alternateBounds"/>
                    </mxGeometry>
                </mxCell>
                <mxCell id="226" value="" style="connectable=0;recursiveResize=0;strokeColor=#d79b00;fillColor=#ffe6cc;align=center;whiteSpace=wrap;html=1;" vertex="1" parent="224">
                    <mxGeometry x="20" width="20" height="20" as="geometry">
                        <mxRectangle width="20" height="20" as="alternateBounds"/>
                    </mxGeometry>
                </mxCell>
                <mxCell id="227" value="" style="connectable=0;recursiveResize=0;strokeColor=inherit;fillColor=none;align=center;whiteSpace=wrap;html=1;" vertex="1" parent="224">
                    <mxGeometry x="40" width="20" height="20" as="geometry">
                        <mxRectangle width="20" height="20" as="alternateBounds"/>
                    </mxGeometry>
                </mxCell>
                <mxCell id="238" style="connectable=0;recursiveResize=0;strokeColor=inherit;fillColor=none;align=center;whiteSpace=wrap;html=1;" vertex="1" parent="224">
                    <mxGeometry x="60" width="20" height="20" as="geometry">
                        <mxRectangle width="20" height="20" as="alternateBounds"/>
                    </mxGeometry>
                </mxCell>
                <mxCell id="243" style="connectable=0;recursiveResize=0;strokeColor=inherit;fillColor=none;align=center;whiteSpace=wrap;html=1;" vertex="1" parent="224">
                    <mxGeometry x="80" width="20" height="20" as="geometry">
                        <mxRectangle width="20" height="20" as="alternateBounds"/>
                    </mxGeometry>
                </mxCell>
                <mxCell id="246" value="" style="shape=sumEllipse;perimeter=ellipsePerimeter;whiteSpace=wrap;html=1;backgroundOutline=1;" vertex="1" parent="1">
                    <mxGeometry x="240" y="140" width="20" height="20" as="geometry"/>
                </mxCell>
                <mxCell id="247" value="" style="shape=table;startSize=0;container=1;collapsible=0;childLayout=tableLayout;fillColor=#f8cecc;strokeColor=#b85450;" vertex="1" parent="1">
                    <mxGeometry x="440" y="100" width="100" height="100" as="geometry"/>
                </mxCell>
                <mxCell id="248" value="" style="shape=tableRow;horizontal=0;startSize=0;swimlaneHead=0;swimlaneBody=0;strokeColor=inherit;top=0;left=0;bottom=0;right=0;collapsible=0;dropTarget=0;fillColor=none;points=[[0,0.5],[1,0.5]];portConstraint=eastwest;" vertex="1" parent="247">
                    <mxGeometry width="100" height="20" as="geometry"/>
                </mxCell>
                <mxCell id="249" value="" style="shape=partialRectangle;html=1;whiteSpace=wrap;connectable=0;strokeColor=inherit;overflow=hidden;fillColor=none;top=0;left=0;bottom=0;right=0;pointerEvents=1;" vertex="1" parent="248">
                    <mxGeometry width="20" height="20" as="geometry">
                        <mxRectangle width="20" height="20" as="alternateBounds"/>
                    </mxGeometry>
                </mxCell>
                <mxCell id="250" value="" style="shape=partialRectangle;html=1;whiteSpace=wrap;connectable=0;strokeColor=#B85450;overflow=hidden;fillColor=#f5f5f5;top=1;left=1;bottom=1;right=1;pointerEvents=1;fontColor=#333333;" vertex="1" parent="248">
                    <mxGeometry x="20" width="20" height="20" as="geometry">
                        <mxRectangle width="20" height="20" as="alternateBounds"/>
                    </mxGeometry>
                </mxCell>
                <mxCell id="251" value="" style="shape=partialRectangle;html=1;whiteSpace=wrap;connectable=0;strokeColor=#B85450;overflow=hidden;fillColor=#f5f5f5;top=1;left=1;bottom=1;right=1;pointerEvents=1;fontColor=#333333;" vertex="1" parent="248">
                    <mxGeometry x="40" width="20" height="20" as="geometry">
                        <mxRectangle width="20" height="20" as="alternateBounds"/>
                    </mxGeometry>
                </mxCell>
                <mxCell id="252" value="" style="shape=partialRectangle;html=1;whiteSpace=wrap;connectable=0;strokeColor=#B85450;overflow=hidden;fillColor=#f5f5f5;top=1;left=1;bottom=1;right=1;pointerEvents=1;fontColor=#333333;" vertex="1" parent="248">
                    <mxGeometry x="60" width="20" height="20" as="geometry">
                        <mxRectangle width="20" height="20" as="alternateBounds"/>
                    </mxGeometry>
                </mxCell>
                <mxCell id="253" value="" style="shape=partialRectangle;html=1;whiteSpace=wrap;connectable=0;strokeColor=#B85450;overflow=hidden;fillColor=#f5f5f5;top=1;left=1;bottom=1;right=1;pointerEvents=1;fontColor=#333333;" vertex="1" parent="248">
                    <mxGeometry x="80" width="20" height="20" as="geometry">
                        <mxRectangle width="20" height="20" as="alternateBounds"/>
                    </mxGeometry>
                </mxCell>
                <mxCell id="254" value="" style="shape=tableRow;horizontal=0;startSize=0;swimlaneHead=0;swimlaneBody=0;strokeColor=inherit;top=0;left=0;bottom=0;right=0;collapsible=0;dropTarget=0;fillColor=none;points=[[0,0.5],[1,0.5]];portConstraint=eastwest;" vertex="1" parent="247">
                    <mxGeometry y="20" width="100" height="20" as="geometry"/>
                </mxCell>
                <mxCell id="255" value="" style="shape=partialRectangle;html=1;whiteSpace=wrap;connectable=0;strokeColor=inherit;overflow=hidden;fillColor=none;top=0;left=0;bottom=0;right=0;pointerEvents=1;" vertex="1" parent="254">
                    <mxGeometry width="20" height="20" as="geometry">
                        <mxRectangle width="20" height="20" as="alternateBounds"/>
                    </mxGeometry>
                </mxCell>
                <mxCell id="256" value="" style="shape=partialRectangle;html=1;whiteSpace=wrap;connectable=0;strokeColor=inherit;overflow=hidden;fillColor=none;top=0;left=0;bottom=0;right=0;pointerEvents=1;" vertex="1" parent="254">
                    <mxGeometry x="20" width="20" height="20" as="geometry">
                        <mxRectangle width="20" height="20" as="alternateBounds"/>
                    </mxGeometry>
                </mxCell>
                <mxCell id="257" value="" style="shape=partialRectangle;html=1;whiteSpace=wrap;connectable=0;strokeColor=#B85450;overflow=hidden;fillColor=#f5f5f5;top=1;left=1;bottom=1;right=1;pointerEvents=1;fontColor=#333333;" vertex="1" parent="254">
                    <mxGeometry x="40" width="20" height="20" as="geometry">
                        <mxRectangle width="20" height="20" as="alternateBounds"/>
                    </mxGeometry>
                </mxCell>
                <mxCell id="258" value="" style="shape=partialRectangle;html=1;whiteSpace=wrap;connectable=0;strokeColor=#B85450;overflow=hidden;fillColor=#f5f5f5;top=1;left=1;bottom=1;right=1;pointerEvents=1;fontColor=#333333;" vertex="1" parent="254">
                    <mxGeometry x="60" width="20" height="20" as="geometry">
                        <mxRectangle width="20" height="20" as="alternateBounds"/>
                    </mxGeometry>
                </mxCell>
                <mxCell id="259" value="" style="shape=partialRectangle;html=1;whiteSpace=wrap;connectable=0;strokeColor=#B85450;overflow=hidden;fillColor=#f5f5f5;top=1;left=1;bottom=1;right=1;pointerEvents=1;fontColor=#333333;" vertex="1" parent="254">
                    <mxGeometry x="80" width="20" height="20" as="geometry">
                        <mxRectangle width="20" height="20" as="alternateBounds"/>
                    </mxGeometry>
                </mxCell>
                <mxCell id="260" value="" style="shape=tableRow;horizontal=0;startSize=0;swimlaneHead=0;swimlaneBody=0;strokeColor=inherit;top=0;left=0;bottom=0;right=0;collapsible=0;dropTarget=0;fillColor=none;points=[[0,0.5],[1,0.5]];portConstraint=eastwest;" vertex="1" parent="247">
                    <mxGeometry y="40" width="100" height="20" as="geometry"/>
                </mxCell>
                <mxCell id="261" value="" style="shape=partialRectangle;html=1;whiteSpace=wrap;connectable=0;strokeColor=inherit;overflow=hidden;fillColor=none;top=0;left=0;bottom=0;right=0;pointerEvents=1;" vertex="1" parent="260">
                    <mxGeometry width="20" height="20" as="geometry">
                        <mxRectangle width="20" height="20" as="alternateBounds"/>
                    </mxGeometry>
                </mxCell>
                <mxCell id="262" value="" style="shape=partialRectangle;html=1;whiteSpace=wrap;connectable=0;strokeColor=inherit;overflow=hidden;fillColor=none;top=0;left=0;bottom=0;right=0;pointerEvents=1;" vertex="1" parent="260">
                    <mxGeometry x="20" width="20" height="20" as="geometry">
                        <mxRectangle width="20" height="20" as="alternateBounds"/>
                    </mxGeometry>
                </mxCell>
                <mxCell id="263" value="" style="shape=partialRectangle;html=1;whiteSpace=wrap;connectable=0;strokeColor=inherit;overflow=hidden;fillColor=none;top=0;left=0;bottom=0;right=0;pointerEvents=1;" vertex="1" parent="260">
                    <mxGeometry x="40" width="20" height="20" as="geometry">
                        <mxRectangle width="20" height="20" as="alternateBounds"/>
                    </mxGeometry>
                </mxCell>
                <mxCell id="264" value="" style="shape=partialRectangle;html=1;whiteSpace=wrap;connectable=0;strokeColor=#B85450;overflow=hidden;fillColor=#f5f5f5;top=1;left=1;bottom=1;right=1;pointerEvents=1;fontColor=#333333;" vertex="1" parent="260">
                    <mxGeometry x="60" width="20" height="20" as="geometry">
                        <mxRectangle width="20" height="20" as="alternateBounds"/>
                    </mxGeometry>
                </mxCell>
                <mxCell id="265" value="" style="shape=partialRectangle;html=1;whiteSpace=wrap;connectable=0;strokeColor=#B85450;overflow=hidden;fillColor=#f5f5f5;top=1;left=1;bottom=1;right=1;pointerEvents=1;fontColor=#333333;" vertex="1" parent="260">
                    <mxGeometry x="80" width="20" height="20" as="geometry">
                        <mxRectangle width="20" height="20" as="alternateBounds"/>
                    </mxGeometry>
                </mxCell>
                <mxCell id="266" value="" style="shape=tableRow;horizontal=0;startSize=0;swimlaneHead=0;swimlaneBody=0;strokeColor=inherit;top=0;left=0;bottom=0;right=0;collapsible=0;dropTarget=0;fillColor=none;points=[[0,0.5],[1,0.5]];portConstraint=eastwest;" vertex="1" parent="247">
                    <mxGeometry y="60" width="100" height="20" as="geometry"/>
                </mxCell>
                <mxCell id="267" value="" style="shape=partialRectangle;html=1;whiteSpace=wrap;connectable=0;strokeColor=inherit;overflow=hidden;fillColor=none;top=0;left=0;bottom=0;right=0;pointerEvents=1;" vertex="1" parent="266">
                    <mxGeometry width="20" height="20" as="geometry">
                        <mxRectangle width="20" height="20" as="alternateBounds"/>
                    </mxGeometry>
                </mxCell>
                <mxCell id="268" value="" style="shape=partialRectangle;html=1;whiteSpace=wrap;connectable=0;strokeColor=inherit;overflow=hidden;fillColor=none;top=0;left=0;bottom=0;right=0;pointerEvents=1;" vertex="1" parent="266">
                    <mxGeometry x="20" width="20" height="20" as="geometry">
                        <mxRectangle width="20" height="20" as="alternateBounds"/>
                    </mxGeometry>
                </mxCell>
                <mxCell id="269" value="" style="shape=partialRectangle;html=1;whiteSpace=wrap;connectable=0;strokeColor=inherit;overflow=hidden;fillColor=none;top=0;left=0;bottom=0;right=0;pointerEvents=1;" vertex="1" parent="266">
                    <mxGeometry x="40" width="20" height="20" as="geometry">
                        <mxRectangle width="20" height="20" as="alternateBounds"/>
                    </mxGeometry>
                </mxCell>
                <mxCell id="270" value="" style="shape=partialRectangle;html=1;whiteSpace=wrap;connectable=0;strokeColor=inherit;overflow=hidden;fillColor=none;top=0;left=0;bottom=0;right=0;pointerEvents=1;" vertex="1" parent="266">
                    <mxGeometry x="60" width="20" height="20" as="geometry">
                        <mxRectangle width="20" height="20" as="alternateBounds"/>
                    </mxGeometry>
                </mxCell>
                <mxCell id="271" value="" style="shape=partialRectangle;html=1;whiteSpace=wrap;connectable=0;strokeColor=#B85450;overflow=hidden;fillColor=#f5f5f5;top=1;left=1;bottom=1;right=1;pointerEvents=1;fontColor=#333333;" vertex="1" parent="266">
                    <mxGeometry x="80" width="20" height="20" as="geometry">
                        <mxRectangle width="20" height="20" as="alternateBounds"/>
                    </mxGeometry>
                </mxCell>
                <mxCell id="272" value="" style="shape=tableRow;horizontal=0;startSize=0;swimlaneHead=0;swimlaneBody=0;strokeColor=inherit;top=0;left=0;bottom=0;right=0;collapsible=0;dropTarget=0;fillColor=none;points=[[0,0.5],[1,0.5]];portConstraint=eastwest;" vertex="1" parent="247">
                    <mxGeometry y="80" width="100" height="20" as="geometry"/>
                </mxCell>
                <mxCell id="273" value="" style="shape=partialRectangle;html=1;whiteSpace=wrap;connectable=0;strokeColor=inherit;overflow=hidden;fillColor=none;top=0;left=0;bottom=0;right=0;pointerEvents=1;" vertex="1" parent="272">
                    <mxGeometry width="20" height="20" as="geometry">
                        <mxRectangle width="20" height="20" as="alternateBounds"/>
                    </mxGeometry>
                </mxCell>
                <mxCell id="274" value="" style="shape=partialRectangle;html=1;whiteSpace=wrap;connectable=0;strokeColor=inherit;overflow=hidden;fillColor=none;top=0;left=0;bottom=0;right=0;pointerEvents=1;" vertex="1" parent="272">
                    <mxGeometry x="20" width="20" height="20" as="geometry">
                        <mxRectangle width="20" height="20" as="alternateBounds"/>
                    </mxGeometry>
                </mxCell>
                <mxCell id="275" value="" style="shape=partialRectangle;html=1;whiteSpace=wrap;connectable=0;strokeColor=inherit;overflow=hidden;fillColor=none;top=0;left=0;bottom=0;right=0;pointerEvents=1;" vertex="1" parent="272">
                    <mxGeometry x="40" width="20" height="20" as="geometry">
                        <mxRectangle width="20" height="20" as="alternateBounds"/>
                    </mxGeometry>
                </mxCell>
                <mxCell id="276" value="" style="shape=partialRectangle;html=1;whiteSpace=wrap;connectable=0;strokeColor=inherit;overflow=hidden;fillColor=none;top=0;left=0;bottom=0;right=0;pointerEvents=1;" vertex="1" parent="272">
                    <mxGeometry x="60" width="20" height="20" as="geometry">
                        <mxRectangle width="20" height="20" as="alternateBounds"/>
                    </mxGeometry>
                </mxCell>
                <mxCell id="277" value="" style="shape=partialRectangle;html=1;whiteSpace=wrap;connectable=0;strokeColor=inherit;overflow=hidden;fillColor=none;top=0;left=0;bottom=0;right=0;pointerEvents=1;" vertex="1" parent="272">
                    <mxGeometry x="80" width="20" height="20" as="geometry">
                        <mxRectangle width="20" height="20" as="alternateBounds"/>
                    </mxGeometry>
                </mxCell>
                <mxCell id="287" value="" style="edgeStyle=none;html=1;" edge="1" parent="1" source="278" target="194">
                    <mxGeometry relative="1" as="geometry"/>
                </mxCell>
                <mxCell id="278" value="" style="shape=sumEllipse;perimeter=ellipsePerimeter;whiteSpace=wrap;html=1;backgroundOutline=1;" vertex="1" parent="1">
                    <mxGeometry x="340" y="380" width="20" height="20" as="geometry"/>
                </mxCell>
                <mxCell id="282" value="" style="edgeStyle=none;html=1;entryX=0.5;entryY=1;entryDx=0;entryDy=0;exitX=0.5;exitY=0;exitDx=0;exitDy=0;" edge="1" parent="1" source="216" target="246">
                    <mxGeometry relative="1" as="geometry">
                        <mxPoint x="170" y="160" as="sourcePoint"/>
                        <mxPoint x="230" y="160" as="targetPoint"/>
                    </mxGeometry>
                </mxCell>
                <mxCell id="283" value="" style="edgeStyle=none;html=1;entryX=0;entryY=0.5;entryDx=0;entryDy=0;exitX=1;exitY=0.5;exitDx=0;exitDy=0;" edge="1" parent="1" source="246" target="176">
                    <mxGeometry relative="1" as="geometry">
                        <mxPoint x="240" y="250" as="sourcePoint"/>
                        <mxPoint x="240" y="170" as="targetPoint"/>
                    </mxGeometry>
                </mxCell>
                <mxCell id="284" value="" style="edgeStyle=none;html=1;entryX=0;entryY=0.5;entryDx=0;entryDy=0;exitX=1;exitY=0.5;exitDx=0;exitDy=0;" edge="1" parent="1" source="176" target="260">
                    <mxGeometry relative="1" as="geometry">
                        <mxPoint x="250" y="160" as="sourcePoint"/>
                        <mxPoint x="310" y="160" as="targetPoint"/>
                    </mxGeometry>
                </mxCell>
                <mxCell id="285" value="" style="edgeStyle=none;html=1;entryX=0;entryY=0.5;entryDx=0;entryDy=0;exitX=1;exitY=0.5;exitDx=0;exitDy=0;" edge="1" parent="1" source="115" target="278">
                    <mxGeometry relative="1" as="geometry">
                        <mxPoint x="190" y="390" as="sourcePoint"/>
                        <mxPoint x="230" y="390" as="targetPoint"/>
                    </mxGeometry>
                </mxCell>
                <mxCell id="286" value="" style="edgeStyle=none;html=1;entryX=0.5;entryY=0;entryDx=0;entryDy=0;exitX=0.503;exitY=1.043;exitDx=0;exitDy=0;exitPerimeter=0;" edge="1" parent="1" source="272" target="278">
                    <mxGeometry relative="1" as="geometry">
                        <mxPoint x="170" y="400" as="sourcePoint"/>
                        <mxPoint x="350" y="400" as="targetPoint"/>
                        <Array as="points">
                            <mxPoint x="490" y="260"/>
                            <mxPoint x="350" y="260"/>
                        </Array>
                    </mxGeometry>
                </mxCell>
                <mxCell id="288" value="" style="edgeStyle=none;html=1;" edge="1" parent="1" source="52" target="215">
                    <mxGeometry relative="1" as="geometry"/>
                </mxCell>
                <mxCell id="289" value="" style="childLayout=tableLayout;recursiveResize=0;shadow=0;fillColor=#ffe6cc;strokeColor=#d79b00;" vertex="1" parent="1">
                    <mxGeometry x="700" y="740" width="20" height="60" as="geometry"/>
                </mxCell>
                <mxCell id="290" value="" style="shape=tableRow;horizontal=0;startSize=0;swimlaneHead=0;swimlaneBody=0;top=0;left=0;bottom=0;right=0;dropTarget=0;collapsible=0;recursiveResize=0;expand=0;fontStyle=0;fillColor=none;strokeColor=inherit;" vertex="1" parent="289">
                    <mxGeometry width="20" height="20" as="geometry"/>
                </mxCell>
                <mxCell id="626" style="connectable=0;recursiveResize=0;strokeColor=#d79b00;fillColor=#FFB366;align=center;whiteSpace=wrap;html=1;" vertex="1" parent="290">
                    <mxGeometry width="20" height="20" as="geometry">
                        <mxRectangle width="20" height="20" as="alternateBounds"/>
                    </mxGeometry>
                </mxCell>
                <mxCell id="628" style="shape=tableRow;horizontal=0;startSize=0;swimlaneHead=0;swimlaneBody=0;top=0;left=0;bottom=0;right=0;dropTarget=0;collapsible=0;recursiveResize=0;expand=0;fontStyle=0;fillColor=none;strokeColor=inherit;" vertex="1" parent="289">
                    <mxGeometry y="20" width="20" height="20" as="geometry"/>
                </mxCell>
                <mxCell id="629" style="connectable=0;recursiveResize=0;strokeColor=#d79b00;fillColor=#FFB366;align=center;whiteSpace=wrap;html=1;" vertex="1" parent="628">
                    <mxGeometry width="20" height="20" as="geometry">
                        <mxRectangle width="20" height="20" as="alternateBounds"/>
                    </mxGeometry>
                </mxCell>
                <mxCell id="630" style="shape=tableRow;horizontal=0;startSize=0;swimlaneHead=0;swimlaneBody=0;top=0;left=0;bottom=0;right=0;dropTarget=0;collapsible=0;recursiveResize=0;expand=0;fontStyle=0;fillColor=none;strokeColor=inherit;" vertex="1" parent="289">
                    <mxGeometry y="40" width="20" height="20" as="geometry"/>
                </mxCell>
                <mxCell id="631" style="connectable=0;recursiveResize=0;strokeColor=#d79b00;fillColor=#FFB366;align=center;whiteSpace=wrap;html=1;" vertex="1" parent="630">
                    <mxGeometry width="20" height="20" as="geometry">
                        <mxRectangle width="20" height="20" as="alternateBounds"/>
                    </mxGeometry>
                </mxCell>
                <mxCell id="310" value="" style="edgeStyle=none;html=1;" edge="1" parent="1" source="311" target="424">
                    <mxGeometry relative="1" as="geometry"/>
                </mxCell>
                <mxCell id="311" value="" style="childLayout=tableLayout;recursiveResize=0;shadow=0;fillColor=#dae8fc;strokeColor=#6c8ebf;" vertex="1" parent="1">
                    <mxGeometry x="680" y="620" width="60" height="20" as="geometry"/>
                </mxCell>
                <mxCell id="312" value="" style="shape=tableRow;horizontal=0;startSize=0;swimlaneHead=0;swimlaneBody=0;top=0;left=0;bottom=0;right=0;dropTarget=0;collapsible=0;recursiveResize=0;expand=0;fontStyle=0;fillColor=#66B2FF;strokeColor=#6c8ebf;" vertex="1" parent="311">
                    <mxGeometry width="60" height="20" as="geometry"/>
                </mxCell>
                <mxCell id="313" value="" style="connectable=0;recursiveResize=0;strokeColor=#6c8ebf;fillColor=none;align=center;whiteSpace=wrap;html=1;" vertex="1" parent="312">
                    <mxGeometry width="20" height="20" as="geometry">
                        <mxRectangle width="20" height="20" as="alternateBounds"/>
                    </mxGeometry>
                </mxCell>
                <mxCell id="314" value="" style="connectable=0;recursiveResize=0;strokeColor=#6c8ebf;fillColor=none;align=center;whiteSpace=wrap;html=1;" vertex="1" parent="312">
                    <mxGeometry x="20" width="20" height="20" as="geometry">
                        <mxRectangle width="20" height="20" as="alternateBounds"/>
                    </mxGeometry>
                </mxCell>
                <mxCell id="315" value="" style="connectable=0;recursiveResize=0;strokeColor=#6c8ebf;fillColor=none;align=center;whiteSpace=wrap;html=1;" vertex="1" parent="312">
                    <mxGeometry x="40" width="20" height="20" as="geometry">
                        <mxRectangle width="20" height="20" as="alternateBounds"/>
                    </mxGeometry>
                </mxCell>
                <mxCell id="332" value="" style="childLayout=tableLayout;recursiveResize=0;shadow=0;fillColor=#e1d5e7;strokeColor=#9673a6;" vertex="1" parent="1">
                    <mxGeometry x="680" y="910" width="60" height="20" as="geometry"/>
                </mxCell>
                <mxCell id="349" style="shape=tableRow;horizontal=0;startSize=0;swimlaneHead=0;swimlaneBody=0;top=0;left=0;bottom=0;right=0;dropTarget=0;collapsible=0;recursiveResize=0;expand=0;fontStyle=0;fillColor=none;strokeColor=inherit;" vertex="1" parent="332">
                    <mxGeometry width="60" height="20" as="geometry"/>
                </mxCell>
                <mxCell id="350" value="" style="connectable=0;recursiveResize=0;strokeColor=#9673a6;fillColor=#CC99FF;align=center;whiteSpace=wrap;html=1;" vertex="1" parent="349">
                    <mxGeometry width="20" height="20" as="geometry">
                        <mxRectangle width="20" height="20" as="alternateBounds"/>
                    </mxGeometry>
                </mxCell>
                <mxCell id="351" value="" style="connectable=0;recursiveResize=0;strokeColor=#9673a6;fillColor=#CC99FF;align=center;whiteSpace=wrap;html=1;" vertex="1" parent="349">
                    <mxGeometry x="20" width="20" height="20" as="geometry">
                        <mxRectangle width="20" height="20" as="alternateBounds"/>
                    </mxGeometry>
                </mxCell>
                <mxCell id="352" value="" style="connectable=0;recursiveResize=0;strokeColor=#9673a6;fillColor=#CC99FF;align=center;whiteSpace=wrap;html=1;" vertex="1" parent="349">
                    <mxGeometry x="40" width="20" height="20" as="geometry">
                        <mxRectangle width="20" height="20" as="alternateBounds"/>
                    </mxGeometry>
                </mxCell>
                <mxCell id="384" value="" style="childLayout=tableLayout;recursiveResize=0;shadow=0;fillColor=#d5e8d4;strokeColor=#82b366;" vertex="1" parent="1">
                    <mxGeometry x="1060" y="910" width="60" height="20" as="geometry"/>
                </mxCell>
                <mxCell id="385" value="" style="shape=tableRow;horizontal=0;startSize=0;swimlaneHead=0;swimlaneBody=0;top=0;left=0;bottom=0;right=0;dropTarget=0;collapsible=0;recursiveResize=0;expand=0;fontStyle=0;fillColor=#d5e8d4;strokeColor=#82b366;" vertex="1" parent="384">
                    <mxGeometry width="60" height="20" as="geometry"/>
                </mxCell>
                <mxCell id="386" value="" style="connectable=0;recursiveResize=0;strokeColor=#82b366;fillColor=#99FF99;align=center;whiteSpace=wrap;html=1;" vertex="1" parent="385">
                    <mxGeometry width="20" height="20" as="geometry">
                        <mxRectangle width="20" height="20" as="alternateBounds"/>
                    </mxGeometry>
                </mxCell>
                <mxCell id="387" value="" style="connectable=0;recursiveResize=0;strokeColor=#82b366;fillColor=#99FF99;align=center;whiteSpace=wrap;html=1;" vertex="1" parent="385">
                    <mxGeometry x="20" width="20" height="20" as="geometry">
                        <mxRectangle width="20" height="20" as="alternateBounds"/>
                    </mxGeometry>
                </mxCell>
                <mxCell id="388" value="" style="connectable=0;recursiveResize=0;strokeColor=#82b366;fillColor=#99FF99;align=center;whiteSpace=wrap;html=1;" vertex="1" parent="385">
                    <mxGeometry x="40" width="20" height="20" as="geometry">
                        <mxRectangle width="20" height="20" as="alternateBounds"/>
                    </mxGeometry>
                </mxCell>
                <mxCell id="405" value="" style="childLayout=tableLayout;recursiveResize=0;shadow=0;fillColor=#ffe6cc;strokeColor=#d79b00;direction=north;" vertex="1" parent="1">
                    <mxGeometry x="820" y="740" width="120" height="60" as="geometry"/>
                </mxCell>
                <mxCell id="406" value="" style="shape=tableRow;horizontal=0;startSize=0;swimlaneHead=0;swimlaneBody=0;top=0;left=0;bottom=0;right=0;dropTarget=0;collapsible=0;recursiveResize=0;expand=0;fontStyle=0;fillColor=none;strokeColor=inherit;" vertex="1" parent="405">
                    <mxGeometry width="120" height="20" as="geometry"/>
                </mxCell>
                <mxCell id="407" value="" style="connectable=0;recursiveResize=0;strokeColor=#d79b00;fillColor=#ffe6cc;align=center;whiteSpace=wrap;html=1;" vertex="1" parent="406">
                    <mxGeometry width="20" height="20" as="geometry">
                        <mxRectangle width="20" height="20" as="alternateBounds"/>
                    </mxGeometry>
                </mxCell>
                <mxCell id="408" value="" style="connectable=0;recursiveResize=0;strokeColor=#d79b00;fillColor=#ffe6cc;align=center;whiteSpace=wrap;html=1;" vertex="1" parent="406">
                    <mxGeometry x="20" width="20" height="20" as="geometry">
                        <mxRectangle width="20" height="20" as="alternateBounds"/>
                    </mxGeometry>
                </mxCell>
                <mxCell id="409" value="" style="connectable=0;recursiveResize=0;strokeColor=#d79b00;fillColor=#ffe6cc;align=center;whiteSpace=wrap;html=1;" vertex="1" parent="406">
                    <mxGeometry x="40" width="20" height="20" as="geometry">
                        <mxRectangle width="20" height="20" as="alternateBounds"/>
                    </mxGeometry>
                </mxCell>
                <mxCell id="410" style="connectable=0;recursiveResize=0;strokeColor=#d79b00;fillColor=#ffe6cc;align=center;whiteSpace=wrap;html=1;" vertex="1" parent="406">
                    <mxGeometry x="60" width="20" height="20" as="geometry">
                        <mxRectangle width="20" height="20" as="alternateBounds"/>
                    </mxGeometry>
                </mxCell>
                <mxCell id="411" style="connectable=0;recursiveResize=0;strokeColor=#d79b00;fillColor=#ffe6cc;align=center;whiteSpace=wrap;html=1;" vertex="1" parent="406">
                    <mxGeometry x="80" width="20" height="20" as="geometry">
                        <mxRectangle width="20" height="20" as="alternateBounds"/>
                    </mxGeometry>
                </mxCell>
                <mxCell id="476" style="connectable=0;recursiveResize=0;strokeColor=#d79b00;fillColor=#FFB366;align=center;whiteSpace=wrap;html=1;" vertex="1" parent="406">
                    <mxGeometry x="100" width="20" height="20" as="geometry">
                        <mxRectangle width="20" height="20" as="alternateBounds"/>
                    </mxGeometry>
                </mxCell>
                <mxCell id="412" value="" style="shape=tableRow;horizontal=0;startSize=0;swimlaneHead=0;swimlaneBody=0;top=0;left=0;bottom=0;right=0;dropTarget=0;collapsible=0;recursiveResize=0;expand=0;fontStyle=0;fillColor=none;strokeColor=inherit;" vertex="1" parent="405">
                    <mxGeometry y="20" width="120" height="20" as="geometry"/>
                </mxCell>
                <mxCell id="413" value="" style="connectable=0;recursiveResize=0;strokeColor=inherit;fillColor=none;align=center;whiteSpace=wrap;html=1;" vertex="1" parent="412">
                    <mxGeometry width="20" height="20" as="geometry">
                        <mxRectangle width="20" height="20" as="alternateBounds"/>
                    </mxGeometry>
                </mxCell>
                <mxCell id="414" value="" style="connectable=0;recursiveResize=0;strokeColor=inherit;fillColor=none;align=center;whiteSpace=wrap;html=1;" vertex="1" parent="412">
                    <mxGeometry x="20" width="20" height="20" as="geometry">
                        <mxRectangle width="20" height="20" as="alternateBounds"/>
                    </mxGeometry>
                </mxCell>
                <mxCell id="415" value="" style="connectable=0;recursiveResize=0;strokeColor=inherit;fillColor=none;align=center;whiteSpace=wrap;html=1;" vertex="1" parent="412">
                    <mxGeometry x="40" width="20" height="20" as="geometry">
                        <mxRectangle width="20" height="20" as="alternateBounds"/>
                    </mxGeometry>
                </mxCell>
                <mxCell id="416" style="connectable=0;recursiveResize=0;strokeColor=inherit;fillColor=none;align=center;whiteSpace=wrap;html=1;" vertex="1" parent="412">
                    <mxGeometry x="60" width="20" height="20" as="geometry">
                        <mxRectangle width="20" height="20" as="alternateBounds"/>
                    </mxGeometry>
                </mxCell>
                <mxCell id="417" style="connectable=0;recursiveResize=0;strokeColor=inherit;fillColor=none;align=center;whiteSpace=wrap;html=1;" vertex="1" parent="412">
                    <mxGeometry x="80" width="20" height="20" as="geometry">
                        <mxRectangle width="20" height="20" as="alternateBounds"/>
                    </mxGeometry>
                </mxCell>
                <mxCell id="477" style="connectable=0;recursiveResize=0;strokeColor=#d79b00;fillColor=#FFB366;align=center;whiteSpace=wrap;html=1;" vertex="1" parent="412">
                    <mxGeometry x="100" width="20" height="20" as="geometry">
                        <mxRectangle width="20" height="20" as="alternateBounds"/>
                    </mxGeometry>
                </mxCell>
                <mxCell id="418" value="" style="shape=tableRow;horizontal=0;startSize=0;swimlaneHead=0;swimlaneBody=0;top=0;left=0;bottom=0;right=0;dropTarget=0;collapsible=0;recursiveResize=0;expand=0;fontStyle=0;fillColor=none;strokeColor=inherit;" vertex="1" parent="405">
                    <mxGeometry y="40" width="120" height="20" as="geometry"/>
                </mxCell>
                <mxCell id="419" value="" style="connectable=0;recursiveResize=0;strokeColor=inherit;fillColor=none;align=center;whiteSpace=wrap;html=1;" vertex="1" parent="418">
                    <mxGeometry width="20" height="20" as="geometry">
                        <mxRectangle width="20" height="20" as="alternateBounds"/>
                    </mxGeometry>
                </mxCell>
                <mxCell id="420" value="" style="connectable=0;recursiveResize=0;strokeColor=#d79b00;fillColor=#ffe6cc;align=center;whiteSpace=wrap;html=1;" vertex="1" parent="418">
                    <mxGeometry x="20" width="20" height="20" as="geometry">
                        <mxRectangle width="20" height="20" as="alternateBounds"/>
                    </mxGeometry>
                </mxCell>
                <mxCell id="421" value="" style="connectable=0;recursiveResize=0;strokeColor=inherit;fillColor=none;align=center;whiteSpace=wrap;html=1;" vertex="1" parent="418">
                    <mxGeometry x="40" width="20" height="20" as="geometry">
                        <mxRectangle width="20" height="20" as="alternateBounds"/>
                    </mxGeometry>
                </mxCell>
                <mxCell id="422" style="connectable=0;recursiveResize=0;strokeColor=inherit;fillColor=none;align=center;whiteSpace=wrap;html=1;" vertex="1" parent="418">
                    <mxGeometry x="60" width="20" height="20" as="geometry">
                        <mxRectangle width="20" height="20" as="alternateBounds"/>
                    </mxGeometry>
                </mxCell>
                <mxCell id="423" style="connectable=0;recursiveResize=0;strokeColor=inherit;fillColor=none;align=center;whiteSpace=wrap;html=1;" vertex="1" parent="418">
                    <mxGeometry x="80" width="20" height="20" as="geometry">
                        <mxRectangle width="20" height="20" as="alternateBounds"/>
                    </mxGeometry>
                </mxCell>
                <mxCell id="478" style="connectable=0;recursiveResize=0;strokeColor=#d79b00;fillColor=#FFB366;align=center;whiteSpace=wrap;html=1;" vertex="1" parent="418">
                    <mxGeometry x="100" width="20" height="20" as="geometry">
                        <mxRectangle width="20" height="20" as="alternateBounds"/>
                    </mxGeometry>
                </mxCell>
                <mxCell id="424" value="" style="shape=sumEllipse;perimeter=ellipsePerimeter;whiteSpace=wrap;html=1;backgroundOutline=1;" vertex="1" parent="1">
                    <mxGeometry x="870" y="620" width="20" height="20" as="geometry"/>
                </mxCell>
                <mxCell id="456" value="" style="edgeStyle=none;html=1;" edge="1" parent="1" source="457" target="384">
                    <mxGeometry relative="1" as="geometry"/>
                </mxCell>
                <mxCell id="457" value="" style="shape=sumEllipse;perimeter=ellipsePerimeter;whiteSpace=wrap;html=1;backgroundOutline=1;" vertex="1" parent="1">
                    <mxGeometry x="970" y="910" width="20" height="20" as="geometry"/>
                </mxCell>
                <mxCell id="458" value="" style="edgeStyle=none;html=1;entryX=0.5;entryY=1;entryDx=0;entryDy=0;exitX=0.5;exitY=0;exitDx=0;exitDy=0;" edge="1" parent="1" source="406" target="424">
                    <mxGeometry relative="1" as="geometry">
                        <mxPoint x="750" y="630" as="sourcePoint"/>
                        <mxPoint x="810" y="630" as="targetPoint"/>
                    </mxGeometry>
                </mxCell>
                <mxCell id="462" value="" style="edgeStyle=none;html=1;entryX=0.5;entryY=0;entryDx=0;entryDy=0;exitX=0.5;exitY=1.002;exitDx=0;exitDy=0;exitPerimeter=0;" edge="1" parent="1" source="523" target="457">
                    <mxGeometry relative="1" as="geometry">
                        <mxPoint x="960" y="660" as="sourcePoint"/>
                        <mxPoint x="930" y="870" as="targetPoint"/>
                    </mxGeometry>
                </mxCell>
                <mxCell id="463" value="" style="edgeStyle=none;html=1;exitX=1;exitY=0;exitDx=0;exitDy=0;" edge="1" parent="1" target="405">
                    <mxGeometry relative="1" as="geometry"/>
                </mxCell>
                <mxCell id="522" value="" style="shape=table;startSize=0;container=1;collapsible=0;childLayout=tableLayout;fillColor=#FF9999;strokeColor=#b85450;" vertex="1" parent="1">
                    <mxGeometry x="920" y="620" width="120" height="20" as="geometry"/>
                </mxCell>
                <mxCell id="523" value="" style="shape=tableRow;horizontal=0;startSize=0;swimlaneHead=0;swimlaneBody=0;strokeColor=inherit;top=0;left=0;bottom=0;right=0;collapsible=0;dropTarget=0;fillColor=none;points=[[0,0.5],[1,0.5]];portConstraint=eastwest;" vertex="1" parent="522">
                    <mxGeometry width="120" height="20" as="geometry"/>
                </mxCell>
                <mxCell id="529" value="" style="shape=partialRectangle;html=1;whiteSpace=wrap;connectable=0;overflow=hidden;top=1;left=1;bottom=1;right=1;pointerEvents=1;fillColor=#FF9999;strokeColor=#b85450;" vertex="1" parent="523">
                    <mxGeometry width="20" height="20" as="geometry">
                        <mxRectangle width="20" height="20" as="alternateBounds"/>
                    </mxGeometry>
                </mxCell>
                <mxCell id="524" value="" style="shape=partialRectangle;html=1;whiteSpace=wrap;connectable=0;strokeColor=inherit;overflow=hidden;fillColor=none;top=0;left=0;bottom=0;right=0;pointerEvents=1;" vertex="1" parent="523">
                    <mxGeometry x="20" width="20" height="20" as="geometry">
                        <mxRectangle width="20" height="20" as="alternateBounds"/>
                    </mxGeometry>
                </mxCell>
                <mxCell id="525" value="" style="shape=partialRectangle;html=1;whiteSpace=wrap;connectable=0;strokeColor=inherit;overflow=hidden;fillColor=none;top=0;left=0;bottom=0;right=0;pointerEvents=1;" vertex="1" parent="523">
                    <mxGeometry x="40" width="20" height="20" as="geometry">
                        <mxRectangle width="20" height="20" as="alternateBounds"/>
                    </mxGeometry>
                </mxCell>
                <mxCell id="526" value="" style="shape=partialRectangle;html=1;whiteSpace=wrap;connectable=0;strokeColor=inherit;overflow=hidden;fillColor=none;top=0;left=0;bottom=0;right=0;pointerEvents=1;" vertex="1" parent="523">
                    <mxGeometry x="60" width="20" height="20" as="geometry">
                        <mxRectangle width="20" height="20" as="alternateBounds"/>
                    </mxGeometry>
                </mxCell>
                <mxCell id="527" value="" style="shape=partialRectangle;html=1;whiteSpace=wrap;connectable=0;strokeColor=inherit;overflow=hidden;fillColor=none;top=0;left=0;bottom=0;right=0;pointerEvents=1;" vertex="1" parent="523">
                    <mxGeometry x="80" width="20" height="20" as="geometry">
                        <mxRectangle width="20" height="20" as="alternateBounds"/>
                    </mxGeometry>
                </mxCell>
                <mxCell id="528" value="" style="shape=partialRectangle;html=1;whiteSpace=wrap;connectable=0;strokeColor=inherit;overflow=hidden;fillColor=none;top=0;left=0;bottom=0;right=0;pointerEvents=1;" vertex="1" parent="523">
                    <mxGeometry x="100" width="20" height="20" as="geometry">
                        <mxRectangle width="20" height="20" as="alternateBounds"/>
                    </mxGeometry>
                </mxCell>
                <mxCell id="614" value="Concat" style="rounded=1;whiteSpace=wrap;html=1;" vertex="1" parent="1">
                    <mxGeometry x="740" y="760" width="60" height="20" as="geometry"/>
                </mxCell>
                <mxCell id="615" value="" style="endArrow=classic;html=1;exitX=0.5;exitY=1;exitDx=0;exitDy=0;entryX=0.5;entryY=0;entryDx=0;entryDy=0;strokeColor=#FF0000;strokeWidth=2;flowAnimation=1;" edge="1" parent="1" source="224" target="614">
                    <mxGeometry width="50" height="50" relative="1" as="geometry">
                        <mxPoint x="400" y="540" as="sourcePoint"/>
                        <mxPoint x="450" y="490" as="targetPoint"/>
                        <Array as="points">
                            <mxPoint x="250" y="700"/>
                            <mxPoint x="770" y="700"/>
                        </Array>
                    </mxGeometry>
                </mxCell>
                <mxCell id="616" value="" style="endArrow=classic;html=1;entryX=0;entryY=0.5;entryDx=0;entryDy=0;exitX=1;exitY=0.5;exitDx=0;exitDy=0;" edge="1" parent="1" source="628" target="614">
                    <mxGeometry width="50" height="50" relative="1" as="geometry">
                        <mxPoint x="730" y="690" as="sourcePoint"/>
                        <mxPoint x="780" y="640" as="targetPoint"/>
                    </mxGeometry>
                </mxCell>
                <mxCell id="617" value="" style="endArrow=classic;html=1;entryX=0;entryY=0.5;entryDx=0;entryDy=0;exitX=1;exitY=0.5;exitDx=0;exitDy=0;" edge="1" parent="1" source="614" target="412">
                    <mxGeometry width="50" height="50" relative="1" as="geometry">
                        <mxPoint x="720" y="820" as="sourcePoint"/>
                        <mxPoint x="720" y="790" as="targetPoint"/>
                    </mxGeometry>
                </mxCell>
                <mxCell id="618" value="K" style="text;html=1;align=center;verticalAlign=middle;whiteSpace=wrap;rounded=0;fontSize=16;" vertex="1" parent="1">
                    <mxGeometry x="70" y="255" width="30" height="30" as="geometry"/>
                </mxCell>
                <mxCell id="619" value="V" style="text;html=1;align=center;verticalAlign=middle;whiteSpace=wrap;rounded=0;fontSize=16;" vertex="1" parent="1">
                    <mxGeometry x="70" y="375" width="30" height="30" as="geometry"/>
                </mxCell>
                <mxCell id="620" value="Q" style="text;html=1;align=center;verticalAlign=middle;whiteSpace=wrap;rounded=0;fontSize=16;" vertex="1" parent="1">
                    <mxGeometry x="70" y="135" width="30" height="30" as="geometry"/>
                </mxCell>
                <mxCell id="621" value="" style="edgeStyle=none;html=1;entryX=0;entryY=0.5;entryDx=0;entryDy=0;exitX=1;exitY=0.5;exitDx=0;exitDy=0;" edge="1" parent="1" source="424" target="523">
                    <mxGeometry relative="1" as="geometry">
                        <mxPoint x="755" y="640" as="sourcePoint"/>
                        <mxPoint x="840" y="640" as="targetPoint"/>
                    </mxGeometry>
                </mxCell>
                <mxCell id="632" value="" style="endArrow=classic;html=1;exitX=0.5;exitY=1;exitDx=0;exitDy=0;entryX=0.5;entryY=0;entryDx=0;entryDy=0;strokeColor=#FF0000;strokeWidth=2;flowAnimation=1;" edge="1" parent="1" source="123" target="633">
                    <mxGeometry width="50" height="50" relative="1" as="geometry">
                        <mxPoint x="370" y="600" as="sourcePoint"/>
                        <mxPoint x="780" y="660" as="targetPoint"/>
                        <Array as="points">
                            <mxPoint x="130" y="860"/>
                            <mxPoint x="790" y="860"/>
                        </Array>
                    </mxGeometry>
                </mxCell>
                <mxCell id="633" value="Concat" style="rounded=1;whiteSpace=wrap;html=1;" vertex="1" parent="1">
                    <mxGeometry x="760" y="910" width="60" height="20" as="geometry"/>
                </mxCell>
                <mxCell id="634" value="" style="endArrow=classic;html=1;entryX=0;entryY=0.5;entryDx=0;entryDy=0;exitX=1;exitY=0.5;exitDx=0;exitDy=0;" edge="1" parent="1" source="349" target="633">
                    <mxGeometry width="50" height="50" relative="1" as="geometry">
                        <mxPoint x="730" y="780" as="sourcePoint"/>
                        <mxPoint x="750" y="780" as="targetPoint"/>
                    </mxGeometry>
                </mxCell>
                <mxCell id="635" value="" style="childLayout=tableLayout;recursiveResize=0;shadow=0;fillColor=#e1d5e7;strokeColor=#9673a6;" vertex="1" parent="1">
                    <mxGeometry x="840" y="860" width="60" height="120" as="geometry"/>
                </mxCell>
                <mxCell id="636" value="" style="shape=tableRow;horizontal=0;startSize=0;swimlaneHead=0;swimlaneBody=0;top=0;left=0;bottom=0;right=0;dropTarget=0;collapsible=0;recursiveResize=0;expand=0;fontStyle=0;fillColor=none;strokeColor=inherit;" vertex="1" parent="635">
                    <mxGeometry width="60" height="20" as="geometry"/>
                </mxCell>
                <mxCell id="637" value="" style="connectable=0;recursiveResize=0;strokeColor=#9673a6;fillColor=#e1d5e7;align=center;whiteSpace=wrap;html=1;" vertex="1" parent="636">
                    <mxGeometry width="20" height="20" as="geometry">
                        <mxRectangle width="20" height="20" as="alternateBounds"/>
                    </mxGeometry>
                </mxCell>
                <mxCell id="638" value="" style="connectable=0;recursiveResize=0;strokeColor=#9673a6;fillColor=#e1d5e7;align=center;whiteSpace=wrap;html=1;" vertex="1" parent="636">
                    <mxGeometry x="20" width="20" height="20" as="geometry">
                        <mxRectangle width="20" height="20" as="alternateBounds"/>
                    </mxGeometry>
                </mxCell>
                <mxCell id="639" value="" style="connectable=0;recursiveResize=0;strokeColor=#9673a6;fillColor=#e1d5e7;align=center;whiteSpace=wrap;html=1;" vertex="1" parent="636">
                    <mxGeometry x="40" width="20" height="20" as="geometry">
                        <mxRectangle width="20" height="20" as="alternateBounds"/>
                    </mxGeometry>
                </mxCell>
                <mxCell id="640" value="" style="shape=tableRow;horizontal=0;startSize=0;swimlaneHead=0;swimlaneBody=0;top=0;left=0;bottom=0;right=0;dropTarget=0;collapsible=0;recursiveResize=0;expand=0;fontStyle=0;fillColor=none;strokeColor=inherit;" vertex="1" parent="635">
                    <mxGeometry y="20" width="60" height="20" as="geometry"/>
                </mxCell>
                <mxCell id="641" value="" style="connectable=0;recursiveResize=0;strokeColor=inherit;fillColor=none;align=center;whiteSpace=wrap;html=1;" vertex="1" parent="640">
                    <mxGeometry width="20" height="20" as="geometry">
                        <mxRectangle width="20" height="20" as="alternateBounds"/>
                    </mxGeometry>
                </mxCell>
                <mxCell id="642" value="" style="connectable=0;recursiveResize=0;strokeColor=inherit;fillColor=none;align=center;whiteSpace=wrap;html=1;" vertex="1" parent="640">
                    <mxGeometry x="20" width="20" height="20" as="geometry">
                        <mxRectangle width="20" height="20" as="alternateBounds"/>
                    </mxGeometry>
                </mxCell>
                <mxCell id="643" value="" style="connectable=0;recursiveResize=0;strokeColor=inherit;fillColor=none;align=center;whiteSpace=wrap;html=1;" vertex="1" parent="640">
                    <mxGeometry x="40" width="20" height="20" as="geometry">
                        <mxRectangle width="20" height="20" as="alternateBounds"/>
                    </mxGeometry>
                </mxCell>
                <mxCell id="644" value="" style="shape=tableRow;horizontal=0;startSize=0;swimlaneHead=0;swimlaneBody=0;top=0;left=0;bottom=0;right=0;dropTarget=0;collapsible=0;recursiveResize=0;expand=0;fontStyle=0;fillColor=none;strokeColor=inherit;" vertex="1" parent="635">
                    <mxGeometry y="40" width="60" height="20" as="geometry"/>
                </mxCell>
                <mxCell id="645" value="" style="connectable=0;recursiveResize=0;strokeColor=inherit;fillColor=none;align=center;whiteSpace=wrap;html=1;" vertex="1" parent="644">
                    <mxGeometry width="20" height="20" as="geometry">
                        <mxRectangle width="20" height="20" as="alternateBounds"/>
                    </mxGeometry>
                </mxCell>
                <mxCell id="646" value="" style="connectable=0;recursiveResize=0;strokeColor=inherit;fillColor=none;align=center;whiteSpace=wrap;html=1;" vertex="1" parent="644">
                    <mxGeometry x="20" width="20" height="20" as="geometry">
                        <mxRectangle width="20" height="20" as="alternateBounds"/>
                    </mxGeometry>
                </mxCell>
                <mxCell id="647" value="" style="connectable=0;recursiveResize=0;strokeColor=inherit;fillColor=none;align=center;whiteSpace=wrap;html=1;" vertex="1" parent="644">
                    <mxGeometry x="40" width="20" height="20" as="geometry">
                        <mxRectangle width="20" height="20" as="alternateBounds"/>
                    </mxGeometry>
                </mxCell>
                <mxCell id="648" style="shape=tableRow;horizontal=0;startSize=0;swimlaneHead=0;swimlaneBody=0;top=0;left=0;bottom=0;right=0;dropTarget=0;collapsible=0;recursiveResize=0;expand=0;fontStyle=0;fillColor=none;strokeColor=inherit;" vertex="1" parent="635">
                    <mxGeometry y="60" width="60" height="20" as="geometry"/>
                </mxCell>
                <mxCell id="649" value="" style="connectable=0;recursiveResize=0;strokeColor=inherit;fillColor=none;align=center;whiteSpace=wrap;html=1;" vertex="1" parent="648">
                    <mxGeometry width="20" height="20" as="geometry">
                        <mxRectangle width="20" height="20" as="alternateBounds"/>
                    </mxGeometry>
                </mxCell>
                <mxCell id="650" value="" style="connectable=0;recursiveResize=0;strokeColor=inherit;fillColor=none;align=center;whiteSpace=wrap;html=1;" vertex="1" parent="648">
                    <mxGeometry x="20" width="20" height="20" as="geometry">
                        <mxRectangle width="20" height="20" as="alternateBounds"/>
                    </mxGeometry>
                </mxCell>
                <mxCell id="651" value="" style="connectable=0;recursiveResize=0;strokeColor=inherit;fillColor=none;align=center;whiteSpace=wrap;html=1;" vertex="1" parent="648">
                    <mxGeometry x="40" width="20" height="20" as="geometry">
                        <mxRectangle width="20" height="20" as="alternateBounds"/>
                    </mxGeometry>
                </mxCell>
                <mxCell id="652" style="shape=tableRow;horizontal=0;startSize=0;swimlaneHead=0;swimlaneBody=0;top=0;left=0;bottom=0;right=0;dropTarget=0;collapsible=0;recursiveResize=0;expand=0;fontStyle=0;fillColor=none;strokeColor=inherit;" vertex="1" parent="635">
                    <mxGeometry y="80" width="60" height="20" as="geometry"/>
                </mxCell>
                <mxCell id="653" value="" style="connectable=0;recursiveResize=0;strokeColor=inherit;fillColor=none;align=center;whiteSpace=wrap;html=1;" vertex="1" parent="652">
                    <mxGeometry width="20" height="20" as="geometry">
                        <mxRectangle width="20" height="20" as="alternateBounds"/>
                    </mxGeometry>
                </mxCell>
                <mxCell id="654" value="" style="connectable=0;recursiveResize=0;strokeColor=inherit;fillColor=none;align=center;whiteSpace=wrap;html=1;" vertex="1" parent="652">
                    <mxGeometry x="20" width="20" height="20" as="geometry">
                        <mxRectangle width="20" height="20" as="alternateBounds"/>
                    </mxGeometry>
                </mxCell>
                <mxCell id="655" value="" style="connectable=0;recursiveResize=0;strokeColor=inherit;fillColor=none;align=center;whiteSpace=wrap;html=1;" vertex="1" parent="652">
                    <mxGeometry x="40" width="20" height="20" as="geometry">
                        <mxRectangle width="20" height="20" as="alternateBounds"/>
                    </mxGeometry>
                </mxCell>
                <mxCell id="656" style="shape=tableRow;horizontal=0;startSize=0;swimlaneHead=0;swimlaneBody=0;top=0;left=0;bottom=0;right=0;dropTarget=0;collapsible=0;recursiveResize=0;expand=0;fontStyle=0;fillColor=none;strokeColor=inherit;" vertex="1" parent="635">
                    <mxGeometry y="100" width="60" height="20" as="geometry"/>
                </mxCell>
                <mxCell id="657" style="connectable=0;recursiveResize=0;strokeColor=#9673a6;fillColor=#CC99FF;align=center;whiteSpace=wrap;html=1;" vertex="1" parent="656">
                    <mxGeometry width="20" height="20" as="geometry">
                        <mxRectangle width="20" height="20" as="alternateBounds"/>
                    </mxGeometry>
                </mxCell>
                <mxCell id="658" style="connectable=0;recursiveResize=0;strokeColor=#9673a6;fillColor=#CC99FF;align=center;whiteSpace=wrap;html=1;" vertex="1" parent="656">
                    <mxGeometry x="20" width="20" height="20" as="geometry">
                        <mxRectangle width="20" height="20" as="alternateBounds"/>
                    </mxGeometry>
                </mxCell>
                <mxCell id="659" style="connectable=0;recursiveResize=0;strokeColor=#9673a6;fillColor=#CC99FF;align=center;whiteSpace=wrap;html=1;" vertex="1" parent="656">
                    <mxGeometry x="40" width="20" height="20" as="geometry">
                        <mxRectangle width="20" height="20" as="alternateBounds"/>
                    </mxGeometry>
                </mxCell>
                <mxCell id="660" value="" style="endArrow=classic;html=1;entryX=0;entryY=0;entryDx=0;entryDy=0;exitX=1;exitY=0.5;exitDx=0;exitDy=0;" edge="1" parent="1" source="633" target="648">
                    <mxGeometry width="50" height="50" relative="1" as="geometry">
                        <mxPoint x="810" y="780" as="sourcePoint"/>
                        <mxPoint x="830" y="780" as="targetPoint"/>
                    </mxGeometry>
                </mxCell>
                <mxCell id="661" value="" style="edgeStyle=none;html=1;exitX=1;exitY=0;exitDx=0;exitDy=0;entryX=0;entryY=0.5;entryDx=0;entryDy=0;" edge="1" parent="1" source="648" target="457">
                    <mxGeometry relative="1" as="geometry">
                        <mxPoint x="990" y="930" as="sourcePoint"/>
                        <mxPoint x="1020" y="930" as="targetPoint"/>
                    </mxGeometry>
                </mxCell>
                <mxCell id="662" value="" style="childLayout=tableLayout;recursiveResize=0;shadow=0;fillColor=#ffe6cc;strokeColor=#d79b00;" vertex="1" parent="1">
                    <mxGeometry x="680" y="240" width="60" height="120" as="geometry"/>
                </mxCell>
                <mxCell id="663" value="" style="shape=tableRow;horizontal=0;startSize=0;swimlaneHead=0;swimlaneBody=0;top=0;left=0;bottom=0;right=0;dropTarget=0;collapsible=0;recursiveResize=0;expand=0;fontStyle=0;fillColor=none;strokeColor=inherit;" vertex="1" parent="662">
                    <mxGeometry width="60" height="20" as="geometry"/>
                </mxCell>
                <mxCell id="664" value="" style="connectable=0;recursiveResize=0;strokeColor=#d79b00;fillColor=#ffe6cc;align=center;whiteSpace=wrap;html=1;" vertex="1" parent="663">
                    <mxGeometry width="20" height="20" as="geometry">
                        <mxRectangle width="20" height="20" as="alternateBounds"/>
                    </mxGeometry>
                </mxCell>
                <mxCell id="665" value="" style="connectable=0;recursiveResize=0;strokeColor=#d79b00;fillColor=#ffe6cc;align=center;whiteSpace=wrap;html=1;" vertex="1" parent="663">
                    <mxGeometry x="20" width="20" height="20" as="geometry">
                        <mxRectangle width="20" height="20" as="alternateBounds"/>
                    </mxGeometry>
                </mxCell>
                <mxCell id="666" value="" style="connectable=0;recursiveResize=0;strokeColor=#d79b00;fillColor=#ffe6cc;align=center;whiteSpace=wrap;html=1;" vertex="1" parent="663">
                    <mxGeometry x="40" width="20" height="20" as="geometry">
                        <mxRectangle width="20" height="20" as="alternateBounds"/>
                    </mxGeometry>
                </mxCell>
                <mxCell id="667" value="" style="shape=tableRow;horizontal=0;startSize=0;swimlaneHead=0;swimlaneBody=0;top=0;left=0;bottom=0;right=0;dropTarget=0;collapsible=0;recursiveResize=0;expand=0;fontStyle=0;fillColor=none;strokeColor=inherit;" vertex="1" parent="662">
                    <mxGeometry y="20" width="60" height="20" as="geometry"/>
                </mxCell>
                <mxCell id="668" value="" style="connectable=0;recursiveResize=0;strokeColor=inherit;fillColor=none;align=center;whiteSpace=wrap;html=1;" vertex="1" parent="667">
                    <mxGeometry width="20" height="20" as="geometry">
                        <mxRectangle width="20" height="20" as="alternateBounds"/>
                    </mxGeometry>
                </mxCell>
                <mxCell id="669" value="" style="connectable=0;recursiveResize=0;strokeColor=inherit;fillColor=none;align=center;whiteSpace=wrap;html=1;" vertex="1" parent="667">
                    <mxGeometry x="20" width="20" height="20" as="geometry">
                        <mxRectangle width="20" height="20" as="alternateBounds"/>
                    </mxGeometry>
                </mxCell>
                <mxCell id="670" value="" style="connectable=0;recursiveResize=0;strokeColor=inherit;fillColor=none;align=center;whiteSpace=wrap;html=1;" vertex="1" parent="667">
                    <mxGeometry x="40" width="20" height="20" as="geometry">
                        <mxRectangle width="20" height="20" as="alternateBounds"/>
                    </mxGeometry>
                </mxCell>
                <mxCell id="671" value="" style="shape=tableRow;horizontal=0;startSize=0;swimlaneHead=0;swimlaneBody=0;top=0;left=0;bottom=0;right=0;dropTarget=0;collapsible=0;recursiveResize=0;expand=0;fontStyle=0;fillColor=none;strokeColor=inherit;" vertex="1" parent="662">
                    <mxGeometry y="40" width="60" height="20" as="geometry"/>
                </mxCell>
                <mxCell id="672" value="" style="connectable=0;recursiveResize=0;strokeColor=inherit;fillColor=none;align=center;whiteSpace=wrap;html=1;" vertex="1" parent="671">
                    <mxGeometry width="20" height="20" as="geometry">
                        <mxRectangle width="20" height="20" as="alternateBounds"/>
                    </mxGeometry>
                </mxCell>
                <mxCell id="673" value="" style="connectable=0;recursiveResize=0;strokeColor=#d79b00;fillColor=#ffe6cc;align=center;whiteSpace=wrap;html=1;" vertex="1" parent="671">
                    <mxGeometry x="20" width="20" height="20" as="geometry">
                        <mxRectangle width="20" height="20" as="alternateBounds"/>
                    </mxGeometry>
                </mxCell>
                <mxCell id="674" value="" style="connectable=0;recursiveResize=0;strokeColor=inherit;fillColor=none;align=center;whiteSpace=wrap;html=1;" vertex="1" parent="671">
                    <mxGeometry x="40" width="20" height="20" as="geometry">
                        <mxRectangle width="20" height="20" as="alternateBounds"/>
                    </mxGeometry>
                </mxCell>
                <mxCell id="675" style="shape=tableRow;horizontal=0;startSize=0;swimlaneHead=0;swimlaneBody=0;top=0;left=0;bottom=0;right=0;dropTarget=0;collapsible=0;recursiveResize=0;expand=0;fontStyle=0;fillColor=none;strokeColor=inherit;" vertex="1" parent="662">
                    <mxGeometry y="60" width="60" height="20" as="geometry"/>
                </mxCell>
                <mxCell id="676" value="" style="connectable=0;recursiveResize=0;strokeColor=inherit;fillColor=none;align=center;whiteSpace=wrap;html=1;" vertex="1" parent="675">
                    <mxGeometry width="20" height="20" as="geometry">
                        <mxRectangle width="20" height="20" as="alternateBounds"/>
                    </mxGeometry>
                </mxCell>
                <mxCell id="677" value="" style="connectable=0;recursiveResize=0;strokeColor=inherit;fillColor=none;align=center;whiteSpace=wrap;html=1;" vertex="1" parent="675">
                    <mxGeometry x="20" width="20" height="20" as="geometry">
                        <mxRectangle width="20" height="20" as="alternateBounds"/>
                    </mxGeometry>
                </mxCell>
                <mxCell id="678" value="" style="connectable=0;recursiveResize=0;strokeColor=inherit;fillColor=none;align=center;whiteSpace=wrap;html=1;" vertex="1" parent="675">
                    <mxGeometry x="40" width="20" height="20" as="geometry">
                        <mxRectangle width="20" height="20" as="alternateBounds"/>
                    </mxGeometry>
                </mxCell>
                <mxCell id="679" style="shape=tableRow;horizontal=0;startSize=0;swimlaneHead=0;swimlaneBody=0;top=0;left=0;bottom=0;right=0;dropTarget=0;collapsible=0;recursiveResize=0;expand=0;fontStyle=0;fillColor=none;strokeColor=inherit;" vertex="1" parent="662">
                    <mxGeometry y="80" width="60" height="20" as="geometry"/>
                </mxCell>
                <mxCell id="680" value="" style="connectable=0;recursiveResize=0;strokeColor=inherit;fillColor=none;align=center;whiteSpace=wrap;html=1;" vertex="1" parent="679">
                    <mxGeometry width="20" height="20" as="geometry">
                        <mxRectangle width="20" height="20" as="alternateBounds"/>
                    </mxGeometry>
                </mxCell>
                <mxCell id="681" value="" style="connectable=0;recursiveResize=0;strokeColor=inherit;fillColor=none;align=center;whiteSpace=wrap;html=1;" vertex="1" parent="679">
                    <mxGeometry x="20" width="20" height="20" as="geometry">
                        <mxRectangle width="20" height="20" as="alternateBounds"/>
                    </mxGeometry>
                </mxCell>
                <mxCell id="682" value="" style="connectable=0;recursiveResize=0;strokeColor=inherit;fillColor=none;align=center;whiteSpace=wrap;html=1;" vertex="1" parent="679">
                    <mxGeometry x="40" width="20" height="20" as="geometry">
                        <mxRectangle width="20" height="20" as="alternateBounds"/>
                    </mxGeometry>
                </mxCell>
                <mxCell id="844" style="shape=tableRow;horizontal=0;startSize=0;swimlaneHead=0;swimlaneBody=0;top=0;left=0;bottom=0;right=0;dropTarget=0;collapsible=0;recursiveResize=0;expand=0;fontStyle=0;fillColor=none;strokeColor=inherit;" vertex="1" parent="662">
                    <mxGeometry y="100" width="60" height="20" as="geometry"/>
                </mxCell>
                <mxCell id="845" style="connectable=0;recursiveResize=0;strokeColor=#d79b00;fillColor=#FFB366;align=center;whiteSpace=wrap;html=1;" vertex="1" parent="844">
                    <mxGeometry width="20" height="20" as="geometry">
                        <mxRectangle width="20" height="20" as="alternateBounds"/>
                    </mxGeometry>
                </mxCell>
                <mxCell id="846" style="connectable=0;recursiveResize=0;strokeColor=#d79b00;fillColor=#FFB366;align=center;whiteSpace=wrap;html=1;" vertex="1" parent="844">
                    <mxGeometry x="20" width="20" height="20" as="geometry">
                        <mxRectangle width="20" height="20" as="alternateBounds"/>
                    </mxGeometry>
                </mxCell>
                <mxCell id="847" style="connectable=0;recursiveResize=0;strokeColor=#d79b00;fillColor=#FFB366;align=center;whiteSpace=wrap;html=1;" vertex="1" parent="844">
                    <mxGeometry x="40" width="20" height="20" as="geometry">
                        <mxRectangle width="20" height="20" as="alternateBounds"/>
                    </mxGeometry>
                </mxCell>
                <mxCell id="683" value="" style="edgeStyle=none;html=1;" edge="1" parent="1" source="684" target="797">
                    <mxGeometry relative="1" as="geometry"/>
                </mxCell>
                <mxCell id="684" value="" style="childLayout=tableLayout;recursiveResize=0;shadow=0;fillColor=#dae8fc;strokeColor=#6c8ebf;" vertex="1" parent="1">
                    <mxGeometry x="680" y="100" width="60" height="120" as="geometry"/>
                </mxCell>
                <mxCell id="685" value="" style="shape=tableRow;horizontal=0;startSize=0;swimlaneHead=0;swimlaneBody=0;top=0;left=0;bottom=0;right=0;dropTarget=0;collapsible=0;recursiveResize=0;expand=0;fontStyle=0;fillColor=none;strokeColor=inherit;" vertex="1" parent="684">
                    <mxGeometry width="60" height="20" as="geometry"/>
                </mxCell>
                <mxCell id="686" value="" style="connectable=0;recursiveResize=0;strokeColor=#6c8ebf;fillColor=none;align=center;whiteSpace=wrap;html=1;" vertex="1" parent="685">
                    <mxGeometry width="20" height="20" as="geometry">
                        <mxRectangle width="20" height="20" as="alternateBounds"/>
                    </mxGeometry>
                </mxCell>
                <mxCell id="687" value="" style="connectable=0;recursiveResize=0;strokeColor=#6c8ebf;fillColor=none;align=center;whiteSpace=wrap;html=1;" vertex="1" parent="685">
                    <mxGeometry x="20" width="20" height="20" as="geometry">
                        <mxRectangle width="20" height="20" as="alternateBounds"/>
                    </mxGeometry>
                </mxCell>
                <mxCell id="688" value="" style="connectable=0;recursiveResize=0;strokeColor=#6c8ebf;fillColor=none;align=center;whiteSpace=wrap;html=1;" vertex="1" parent="685">
                    <mxGeometry x="40" width="20" height="20" as="geometry">
                        <mxRectangle width="20" height="20" as="alternateBounds"/>
                    </mxGeometry>
                </mxCell>
                <mxCell id="689" value="" style="shape=tableRow;horizontal=0;startSize=0;swimlaneHead=0;swimlaneBody=0;top=0;left=0;bottom=0;right=0;dropTarget=0;collapsible=0;recursiveResize=0;expand=0;fontStyle=0;fillColor=none;strokeColor=inherit;" vertex="1" parent="684">
                    <mxGeometry y="20" width="60" height="20" as="geometry"/>
                </mxCell>
                <mxCell id="690" value="" style="connectable=0;recursiveResize=0;strokeColor=inherit;fillColor=none;align=center;whiteSpace=wrap;html=1;" vertex="1" parent="689">
                    <mxGeometry width="20" height="20" as="geometry">
                        <mxRectangle width="20" height="20" as="alternateBounds"/>
                    </mxGeometry>
                </mxCell>
                <mxCell id="691" value="" style="connectable=0;recursiveResize=0;strokeColor=inherit;fillColor=none;align=center;whiteSpace=wrap;html=1;" vertex="1" parent="689">
                    <mxGeometry x="20" width="20" height="20" as="geometry">
                        <mxRectangle width="20" height="20" as="alternateBounds"/>
                    </mxGeometry>
                </mxCell>
                <mxCell id="692" value="" style="connectable=0;recursiveResize=0;strokeColor=inherit;fillColor=none;align=center;whiteSpace=wrap;html=1;" vertex="1" parent="689">
                    <mxGeometry x="40" width="20" height="20" as="geometry">
                        <mxRectangle width="20" height="20" as="alternateBounds"/>
                    </mxGeometry>
                </mxCell>
                <mxCell id="693" value="" style="shape=tableRow;horizontal=0;startSize=0;swimlaneHead=0;swimlaneBody=0;top=0;left=0;bottom=0;right=0;dropTarget=0;collapsible=0;recursiveResize=0;expand=0;fontStyle=0;fillColor=none;strokeColor=inherit;" vertex="1" parent="684">
                    <mxGeometry y="40" width="60" height="20" as="geometry"/>
                </mxCell>
                <mxCell id="694" value="" style="connectable=0;recursiveResize=0;strokeColor=inherit;fillColor=none;align=center;whiteSpace=wrap;html=1;" vertex="1" parent="693">
                    <mxGeometry width="20" height="20" as="geometry">
                        <mxRectangle width="20" height="20" as="alternateBounds"/>
                    </mxGeometry>
                </mxCell>
                <mxCell id="695" value="" style="connectable=0;recursiveResize=0;strokeColor=inherit;fillColor=none;align=center;whiteSpace=wrap;html=1;" vertex="1" parent="693">
                    <mxGeometry x="20" width="20" height="20" as="geometry">
                        <mxRectangle width="20" height="20" as="alternateBounds"/>
                    </mxGeometry>
                </mxCell>
                <mxCell id="696" value="" style="connectable=0;recursiveResize=0;strokeColor=inherit;fillColor=none;align=center;whiteSpace=wrap;html=1;" vertex="1" parent="693">
                    <mxGeometry x="40" width="20" height="20" as="geometry">
                        <mxRectangle width="20" height="20" as="alternateBounds"/>
                    </mxGeometry>
                </mxCell>
                <mxCell id="697" style="shape=tableRow;horizontal=0;startSize=0;swimlaneHead=0;swimlaneBody=0;top=0;left=0;bottom=0;right=0;dropTarget=0;collapsible=0;recursiveResize=0;expand=0;fontStyle=0;fillColor=none;strokeColor=inherit;" vertex="1" parent="684">
                    <mxGeometry y="60" width="60" height="20" as="geometry"/>
                </mxCell>
                <mxCell id="698" value="" style="connectable=0;recursiveResize=0;strokeColor=inherit;fillColor=none;align=center;whiteSpace=wrap;html=1;" vertex="1" parent="697">
                    <mxGeometry width="20" height="20" as="geometry">
                        <mxRectangle width="20" height="20" as="alternateBounds"/>
                    </mxGeometry>
                </mxCell>
                <mxCell id="699" value="" style="connectable=0;recursiveResize=0;strokeColor=inherit;fillColor=none;align=center;whiteSpace=wrap;html=1;" vertex="1" parent="697">
                    <mxGeometry x="20" width="20" height="20" as="geometry">
                        <mxRectangle width="20" height="20" as="alternateBounds"/>
                    </mxGeometry>
                </mxCell>
                <mxCell id="700" value="" style="connectable=0;recursiveResize=0;strokeColor=inherit;fillColor=none;align=center;whiteSpace=wrap;html=1;" vertex="1" parent="697">
                    <mxGeometry x="40" width="20" height="20" as="geometry">
                        <mxRectangle width="20" height="20" as="alternateBounds"/>
                    </mxGeometry>
                </mxCell>
                <mxCell id="701" style="shape=tableRow;horizontal=0;startSize=0;swimlaneHead=0;swimlaneBody=0;top=0;left=0;bottom=0;right=0;dropTarget=0;collapsible=0;recursiveResize=0;expand=0;fontStyle=0;fillColor=none;strokeColor=inherit;" vertex="1" parent="684">
                    <mxGeometry y="80" width="60" height="20" as="geometry"/>
                </mxCell>
                <mxCell id="702" value="" style="connectable=0;recursiveResize=0;strokeColor=inherit;fillColor=none;align=center;whiteSpace=wrap;html=1;" vertex="1" parent="701">
                    <mxGeometry width="20" height="20" as="geometry">
                        <mxRectangle width="20" height="20" as="alternateBounds"/>
                    </mxGeometry>
                </mxCell>
                <mxCell id="703" value="" style="connectable=0;recursiveResize=0;strokeColor=inherit;fillColor=none;align=center;whiteSpace=wrap;html=1;" vertex="1" parent="701">
                    <mxGeometry x="20" width="20" height="20" as="geometry">
                        <mxRectangle width="20" height="20" as="alternateBounds"/>
                    </mxGeometry>
                </mxCell>
                <mxCell id="704" value="" style="connectable=0;recursiveResize=0;strokeColor=inherit;fillColor=none;align=center;whiteSpace=wrap;html=1;" vertex="1" parent="701">
                    <mxGeometry x="40" width="20" height="20" as="geometry">
                        <mxRectangle width="20" height="20" as="alternateBounds"/>
                    </mxGeometry>
                </mxCell>
                <mxCell id="840" style="shape=tableRow;horizontal=0;startSize=0;swimlaneHead=0;swimlaneBody=0;top=0;left=0;bottom=0;right=0;dropTarget=0;collapsible=0;recursiveResize=0;expand=0;fontStyle=0;fillColor=none;strokeColor=inherit;" vertex="1" parent="684">
                    <mxGeometry y="100" width="60" height="20" as="geometry"/>
                </mxCell>
                <mxCell id="841" style="connectable=0;recursiveResize=0;strokeColor=#6c8ebf;fillColor=#66B2FF;align=center;whiteSpace=wrap;html=1;" vertex="1" parent="840">
                    <mxGeometry width="20" height="20" as="geometry">
                        <mxRectangle width="20" height="20" as="alternateBounds"/>
                    </mxGeometry>
                </mxCell>
                <mxCell id="842" style="connectable=0;recursiveResize=0;strokeColor=#6c8ebf;fillColor=#66B2FF;align=center;whiteSpace=wrap;html=1;" vertex="1" parent="840">
                    <mxGeometry x="20" width="20" height="20" as="geometry">
                        <mxRectangle width="20" height="20" as="alternateBounds"/>
                    </mxGeometry>
                </mxCell>
                <mxCell id="843" style="connectable=0;recursiveResize=0;strokeColor=#6c8ebf;fillColor=#66B2FF;align=center;whiteSpace=wrap;html=1;" vertex="1" parent="840">
                    <mxGeometry x="40" width="20" height="20" as="geometry">
                        <mxRectangle width="20" height="20" as="alternateBounds"/>
                    </mxGeometry>
                </mxCell>
                <mxCell id="705" value="" style="childLayout=tableLayout;recursiveResize=0;shadow=0;fillColor=#e1d5e7;strokeColor=#9673a6;" vertex="1" parent="1">
                    <mxGeometry x="680" y="380" width="60" height="120" as="geometry"/>
                </mxCell>
                <mxCell id="706" value="" style="shape=tableRow;horizontal=0;startSize=0;swimlaneHead=0;swimlaneBody=0;top=0;left=0;bottom=0;right=0;dropTarget=0;collapsible=0;recursiveResize=0;expand=0;fontStyle=0;fillColor=none;strokeColor=inherit;" vertex="1" parent="705">
                    <mxGeometry width="60" height="20" as="geometry"/>
                </mxCell>
                <mxCell id="707" value="" style="connectable=0;recursiveResize=0;strokeColor=#9673a6;fillColor=#e1d5e7;align=center;whiteSpace=wrap;html=1;" vertex="1" parent="706">
                    <mxGeometry width="20" height="20" as="geometry">
                        <mxRectangle width="20" height="20" as="alternateBounds"/>
                    </mxGeometry>
                </mxCell>
                <mxCell id="708" value="" style="connectable=0;recursiveResize=0;strokeColor=#9673a6;fillColor=#e1d5e7;align=center;whiteSpace=wrap;html=1;" vertex="1" parent="706">
                    <mxGeometry x="20" width="20" height="20" as="geometry">
                        <mxRectangle width="20" height="20" as="alternateBounds"/>
                    </mxGeometry>
                </mxCell>
                <mxCell id="709" value="" style="connectable=0;recursiveResize=0;strokeColor=#9673a6;fillColor=#e1d5e7;align=center;whiteSpace=wrap;html=1;" vertex="1" parent="706">
                    <mxGeometry x="40" width="20" height="20" as="geometry">
                        <mxRectangle width="20" height="20" as="alternateBounds"/>
                    </mxGeometry>
                </mxCell>
                <mxCell id="710" value="" style="shape=tableRow;horizontal=0;startSize=0;swimlaneHead=0;swimlaneBody=0;top=0;left=0;bottom=0;right=0;dropTarget=0;collapsible=0;recursiveResize=0;expand=0;fontStyle=0;fillColor=none;strokeColor=inherit;" vertex="1" parent="705">
                    <mxGeometry y="20" width="60" height="20" as="geometry"/>
                </mxCell>
                <mxCell id="711" value="" style="connectable=0;recursiveResize=0;strokeColor=inherit;fillColor=none;align=center;whiteSpace=wrap;html=1;" vertex="1" parent="710">
                    <mxGeometry width="20" height="20" as="geometry">
                        <mxRectangle width="20" height="20" as="alternateBounds"/>
                    </mxGeometry>
                </mxCell>
                <mxCell id="712" value="" style="connectable=0;recursiveResize=0;strokeColor=inherit;fillColor=none;align=center;whiteSpace=wrap;html=1;" vertex="1" parent="710">
                    <mxGeometry x="20" width="20" height="20" as="geometry">
                        <mxRectangle width="20" height="20" as="alternateBounds"/>
                    </mxGeometry>
                </mxCell>
                <mxCell id="713" value="" style="connectable=0;recursiveResize=0;strokeColor=inherit;fillColor=none;align=center;whiteSpace=wrap;html=1;" vertex="1" parent="710">
                    <mxGeometry x="40" width="20" height="20" as="geometry">
                        <mxRectangle width="20" height="20" as="alternateBounds"/>
                    </mxGeometry>
                </mxCell>
                <mxCell id="714" value="" style="shape=tableRow;horizontal=0;startSize=0;swimlaneHead=0;swimlaneBody=0;top=0;left=0;bottom=0;right=0;dropTarget=0;collapsible=0;recursiveResize=0;expand=0;fontStyle=0;fillColor=none;strokeColor=inherit;" vertex="1" parent="705">
                    <mxGeometry y="40" width="60" height="20" as="geometry"/>
                </mxCell>
                <mxCell id="715" value="" style="connectable=0;recursiveResize=0;strokeColor=inherit;fillColor=none;align=center;whiteSpace=wrap;html=1;" vertex="1" parent="714">
                    <mxGeometry width="20" height="20" as="geometry">
                        <mxRectangle width="20" height="20" as="alternateBounds"/>
                    </mxGeometry>
                </mxCell>
                <mxCell id="716" value="" style="connectable=0;recursiveResize=0;strokeColor=inherit;fillColor=none;align=center;whiteSpace=wrap;html=1;" vertex="1" parent="714">
                    <mxGeometry x="20" width="20" height="20" as="geometry">
                        <mxRectangle width="20" height="20" as="alternateBounds"/>
                    </mxGeometry>
                </mxCell>
                <mxCell id="717" value="" style="connectable=0;recursiveResize=0;strokeColor=inherit;fillColor=none;align=center;whiteSpace=wrap;html=1;" vertex="1" parent="714">
                    <mxGeometry x="40" width="20" height="20" as="geometry">
                        <mxRectangle width="20" height="20" as="alternateBounds"/>
                    </mxGeometry>
                </mxCell>
                <mxCell id="718" style="shape=tableRow;horizontal=0;startSize=0;swimlaneHead=0;swimlaneBody=0;top=0;left=0;bottom=0;right=0;dropTarget=0;collapsible=0;recursiveResize=0;expand=0;fontStyle=0;fillColor=none;strokeColor=inherit;" vertex="1" parent="705">
                    <mxGeometry y="60" width="60" height="20" as="geometry"/>
                </mxCell>
                <mxCell id="719" value="" style="connectable=0;recursiveResize=0;strokeColor=inherit;fillColor=none;align=center;whiteSpace=wrap;html=1;" vertex="1" parent="718">
                    <mxGeometry width="20" height="20" as="geometry">
                        <mxRectangle width="20" height="20" as="alternateBounds"/>
                    </mxGeometry>
                </mxCell>
                <mxCell id="720" value="" style="connectable=0;recursiveResize=0;strokeColor=inherit;fillColor=none;align=center;whiteSpace=wrap;html=1;" vertex="1" parent="718">
                    <mxGeometry x="20" width="20" height="20" as="geometry">
                        <mxRectangle width="20" height="20" as="alternateBounds"/>
                    </mxGeometry>
                </mxCell>
                <mxCell id="721" value="" style="connectable=0;recursiveResize=0;strokeColor=inherit;fillColor=none;align=center;whiteSpace=wrap;html=1;" vertex="1" parent="718">
                    <mxGeometry x="40" width="20" height="20" as="geometry">
                        <mxRectangle width="20" height="20" as="alternateBounds"/>
                    </mxGeometry>
                </mxCell>
                <mxCell id="722" style="shape=tableRow;horizontal=0;startSize=0;swimlaneHead=0;swimlaneBody=0;top=0;left=0;bottom=0;right=0;dropTarget=0;collapsible=0;recursiveResize=0;expand=0;fontStyle=0;fillColor=none;strokeColor=inherit;" vertex="1" parent="705">
                    <mxGeometry y="80" width="60" height="20" as="geometry"/>
                </mxCell>
                <mxCell id="723" value="" style="connectable=0;recursiveResize=0;strokeColor=inherit;fillColor=none;align=center;whiteSpace=wrap;html=1;" vertex="1" parent="722">
                    <mxGeometry width="20" height="20" as="geometry">
                        <mxRectangle width="20" height="20" as="alternateBounds"/>
                    </mxGeometry>
                </mxCell>
                <mxCell id="724" value="" style="connectable=0;recursiveResize=0;strokeColor=inherit;fillColor=none;align=center;whiteSpace=wrap;html=1;" vertex="1" parent="722">
                    <mxGeometry x="20" width="20" height="20" as="geometry">
                        <mxRectangle width="20" height="20" as="alternateBounds"/>
                    </mxGeometry>
                </mxCell>
                <mxCell id="725" value="" style="connectable=0;recursiveResize=0;strokeColor=inherit;fillColor=none;align=center;whiteSpace=wrap;html=1;" vertex="1" parent="722">
                    <mxGeometry x="40" width="20" height="20" as="geometry">
                        <mxRectangle width="20" height="20" as="alternateBounds"/>
                    </mxGeometry>
                </mxCell>
                <mxCell id="851" style="shape=tableRow;horizontal=0;startSize=0;swimlaneHead=0;swimlaneBody=0;top=0;left=0;bottom=0;right=0;dropTarget=0;collapsible=0;recursiveResize=0;expand=0;fontStyle=0;fillColor=#CC99FF;strokeColor=#9673a6;" vertex="1" parent="705">
                    <mxGeometry y="100" width="60" height="20" as="geometry"/>
                </mxCell>
                <mxCell id="852" style="connectable=0;recursiveResize=0;strokeColor=#9673a6;fillColor=#CC99FF;align=center;whiteSpace=wrap;html=1;" vertex="1" parent="851">
                    <mxGeometry width="20" height="20" as="geometry">
                        <mxRectangle width="20" height="20" as="alternateBounds"/>
                    </mxGeometry>
                </mxCell>
                <mxCell id="853" style="connectable=0;recursiveResize=0;strokeColor=#9673a6;fillColor=#CC99FF;align=center;whiteSpace=wrap;html=1;" vertex="1" parent="851">
                    <mxGeometry x="20" width="20" height="20" as="geometry">
                        <mxRectangle width="20" height="20" as="alternateBounds"/>
                    </mxGeometry>
                </mxCell>
                <mxCell id="854" style="connectable=0;recursiveResize=0;strokeColor=inherit;fillColor=none;align=center;whiteSpace=wrap;html=1;" vertex="1" parent="851">
                    <mxGeometry x="40" width="20" height="20" as="geometry">
                        <mxRectangle width="20" height="20" as="alternateBounds"/>
                    </mxGeometry>
                </mxCell>
                <mxCell id="726" value="" style="shape=table;startSize=0;container=1;collapsible=0;childLayout=tableLayout;fillColor=#f8cecc;strokeColor=#b85450;" vertex="1" parent="1">
                    <mxGeometry x="880" y="100" width="120" height="120" as="geometry"/>
                </mxCell>
                <mxCell id="727" value="" style="shape=tableRow;horizontal=0;startSize=0;swimlaneHead=0;swimlaneBody=0;strokeColor=inherit;top=0;left=0;bottom=0;right=0;collapsible=0;dropTarget=0;fillColor=none;points=[[0,0.5],[1,0.5]];portConstraint=eastwest;" vertex="1" parent="726">
                    <mxGeometry width="120" height="20" as="geometry"/>
                </mxCell>
                <mxCell id="728" value="" style="shape=partialRectangle;html=1;whiteSpace=wrap;connectable=0;strokeColor=inherit;overflow=hidden;fillColor=none;top=0;left=0;bottom=0;right=0;pointerEvents=1;" vertex="1" parent="727">
                    <mxGeometry width="20" height="20" as="geometry">
                        <mxRectangle width="20" height="20" as="alternateBounds"/>
                    </mxGeometry>
                </mxCell>
                <mxCell id="729" value="" style="shape=partialRectangle;html=1;whiteSpace=wrap;connectable=0;strokeColor=inherit;overflow=hidden;fillColor=none;top=0;left=0;bottom=0;right=0;pointerEvents=1;" vertex="1" parent="727">
                    <mxGeometry x="20" width="20" height="20" as="geometry">
                        <mxRectangle width="20" height="20" as="alternateBounds"/>
                    </mxGeometry>
                </mxCell>
                <mxCell id="730" value="" style="shape=partialRectangle;html=1;whiteSpace=wrap;connectable=0;strokeColor=inherit;overflow=hidden;fillColor=none;top=0;left=0;bottom=0;right=0;pointerEvents=1;" vertex="1" parent="727">
                    <mxGeometry x="40" width="20" height="20" as="geometry">
                        <mxRectangle width="20" height="20" as="alternateBounds"/>
                    </mxGeometry>
                </mxCell>
                <mxCell id="731" value="" style="shape=partialRectangle;html=1;whiteSpace=wrap;connectable=0;strokeColor=inherit;overflow=hidden;fillColor=none;top=0;left=0;bottom=0;right=0;pointerEvents=1;" vertex="1" parent="727">
                    <mxGeometry x="60" width="20" height="20" as="geometry">
                        <mxRectangle width="20" height="20" as="alternateBounds"/>
                    </mxGeometry>
                </mxCell>
                <mxCell id="732" value="" style="shape=partialRectangle;html=1;whiteSpace=wrap;connectable=0;strokeColor=inherit;overflow=hidden;fillColor=none;top=0;left=0;bottom=0;right=0;pointerEvents=1;" vertex="1" parent="727">
                    <mxGeometry x="80" width="20" height="20" as="geometry">
                        <mxRectangle width="20" height="20" as="alternateBounds"/>
                    </mxGeometry>
                </mxCell>
                <mxCell id="861" style="shape=partialRectangle;html=1;whiteSpace=wrap;connectable=0;strokeColor=#b85450;overflow=hidden;fillColor=#FF9999;top=1;left=1;bottom=1;right=1;pointerEvents=1;" vertex="1" parent="727">
                    <mxGeometry x="100" width="20" height="20" as="geometry">
                        <mxRectangle width="20" height="20" as="alternateBounds"/>
                    </mxGeometry>
                </mxCell>
                <mxCell id="733" value="" style="shape=tableRow;horizontal=0;startSize=0;swimlaneHead=0;swimlaneBody=0;strokeColor=inherit;top=0;left=0;bottom=0;right=0;collapsible=0;dropTarget=0;fillColor=none;points=[[0,0.5],[1,0.5]];portConstraint=eastwest;" vertex="1" parent="726">
                    <mxGeometry y="20" width="120" height="20" as="geometry"/>
                </mxCell>
                <mxCell id="734" value="" style="shape=partialRectangle;html=1;whiteSpace=wrap;connectable=0;strokeColor=inherit;overflow=hidden;fillColor=none;top=0;left=0;bottom=0;right=0;pointerEvents=1;" vertex="1" parent="733">
                    <mxGeometry width="20" height="20" as="geometry">
                        <mxRectangle width="20" height="20" as="alternateBounds"/>
                    </mxGeometry>
                </mxCell>
                <mxCell id="735" value="" style="shape=partialRectangle;html=1;whiteSpace=wrap;connectable=0;strokeColor=inherit;overflow=hidden;fillColor=none;top=0;left=0;bottom=0;right=0;pointerEvents=1;" vertex="1" parent="733">
                    <mxGeometry x="20" width="20" height="20" as="geometry">
                        <mxRectangle width="20" height="20" as="alternateBounds"/>
                    </mxGeometry>
                </mxCell>
                <mxCell id="736" value="" style="shape=partialRectangle;html=1;whiteSpace=wrap;connectable=0;strokeColor=inherit;overflow=hidden;fillColor=none;top=0;left=0;bottom=0;right=0;pointerEvents=1;" vertex="1" parent="733">
                    <mxGeometry x="40" width="20" height="20" as="geometry">
                        <mxRectangle width="20" height="20" as="alternateBounds"/>
                    </mxGeometry>
                </mxCell>
                <mxCell id="737" value="" style="shape=partialRectangle;html=1;whiteSpace=wrap;connectable=0;strokeColor=inherit;overflow=hidden;fillColor=none;top=0;left=0;bottom=0;right=0;pointerEvents=1;" vertex="1" parent="733">
                    <mxGeometry x="60" width="20" height="20" as="geometry">
                        <mxRectangle width="20" height="20" as="alternateBounds"/>
                    </mxGeometry>
                </mxCell>
                <mxCell id="738" value="" style="shape=partialRectangle;html=1;whiteSpace=wrap;connectable=0;strokeColor=inherit;overflow=hidden;fillColor=none;top=0;left=0;bottom=0;right=0;pointerEvents=1;" vertex="1" parent="733">
                    <mxGeometry x="80" width="20" height="20" as="geometry">
                        <mxRectangle width="20" height="20" as="alternateBounds"/>
                    </mxGeometry>
                </mxCell>
                <mxCell id="862" style="shape=partialRectangle;html=1;whiteSpace=wrap;connectable=0;strokeColor=#b85450;overflow=hidden;fillColor=#FF9999;top=1;left=1;bottom=1;right=1;pointerEvents=1;" vertex="1" parent="733">
                    <mxGeometry x="100" width="20" height="20" as="geometry">
                        <mxRectangle width="20" height="20" as="alternateBounds"/>
                    </mxGeometry>
                </mxCell>
                <mxCell id="739" value="" style="shape=tableRow;horizontal=0;startSize=0;swimlaneHead=0;swimlaneBody=0;strokeColor=inherit;top=0;left=0;bottom=0;right=0;collapsible=0;dropTarget=0;fillColor=none;points=[[0,0.5],[1,0.5]];portConstraint=eastwest;" vertex="1" parent="726">
                    <mxGeometry y="40" width="120" height="20" as="geometry"/>
                </mxCell>
                <mxCell id="740" value="" style="shape=partialRectangle;html=1;whiteSpace=wrap;connectable=0;strokeColor=inherit;overflow=hidden;fillColor=none;top=0;left=0;bottom=0;right=0;pointerEvents=1;" vertex="1" parent="739">
                    <mxGeometry width="20" height="20" as="geometry">
                        <mxRectangle width="20" height="20" as="alternateBounds"/>
                    </mxGeometry>
                </mxCell>
                <mxCell id="741" value="" style="shape=partialRectangle;html=1;whiteSpace=wrap;connectable=0;strokeColor=inherit;overflow=hidden;fillColor=none;top=0;left=0;bottom=0;right=0;pointerEvents=1;" vertex="1" parent="739">
                    <mxGeometry x="20" width="20" height="20" as="geometry">
                        <mxRectangle width="20" height="20" as="alternateBounds"/>
                    </mxGeometry>
                </mxCell>
                <mxCell id="742" value="" style="shape=partialRectangle;html=1;whiteSpace=wrap;connectable=0;strokeColor=inherit;overflow=hidden;fillColor=none;top=0;left=0;bottom=0;right=0;pointerEvents=1;" vertex="1" parent="739">
                    <mxGeometry x="40" width="20" height="20" as="geometry">
                        <mxRectangle width="20" height="20" as="alternateBounds"/>
                    </mxGeometry>
                </mxCell>
                <mxCell id="743" value="" style="shape=partialRectangle;html=1;whiteSpace=wrap;connectable=0;strokeColor=inherit;overflow=hidden;fillColor=none;top=0;left=0;bottom=0;right=0;pointerEvents=1;" vertex="1" parent="739">
                    <mxGeometry x="60" width="20" height="20" as="geometry">
                        <mxRectangle width="20" height="20" as="alternateBounds"/>
                    </mxGeometry>
                </mxCell>
                <mxCell id="744" value="" style="shape=partialRectangle;html=1;whiteSpace=wrap;connectable=0;strokeColor=inherit;overflow=hidden;fillColor=none;top=0;left=0;bottom=0;right=0;pointerEvents=1;" vertex="1" parent="739">
                    <mxGeometry x="80" width="20" height="20" as="geometry">
                        <mxRectangle width="20" height="20" as="alternateBounds"/>
                    </mxGeometry>
                </mxCell>
                <mxCell id="863" style="shape=partialRectangle;html=1;whiteSpace=wrap;connectable=0;strokeColor=#b85450;overflow=hidden;fillColor=#FF9999;top=1;left=1;bottom=1;right=1;pointerEvents=1;" vertex="1" parent="739">
                    <mxGeometry x="100" width="20" height="20" as="geometry">
                        <mxRectangle width="20" height="20" as="alternateBounds"/>
                    </mxGeometry>
                </mxCell>
                <mxCell id="745" value="" style="shape=tableRow;horizontal=0;startSize=0;swimlaneHead=0;swimlaneBody=0;strokeColor=inherit;top=0;left=0;bottom=0;right=0;collapsible=0;dropTarget=0;fillColor=none;points=[[0,0.5],[1,0.5]];portConstraint=eastwest;" vertex="1" parent="726">
                    <mxGeometry y="60" width="120" height="20" as="geometry"/>
                </mxCell>
                <mxCell id="746" value="" style="shape=partialRectangle;html=1;whiteSpace=wrap;connectable=0;strokeColor=inherit;overflow=hidden;fillColor=none;top=0;left=0;bottom=0;right=0;pointerEvents=1;" vertex="1" parent="745">
                    <mxGeometry width="20" height="20" as="geometry">
                        <mxRectangle width="20" height="20" as="alternateBounds"/>
                    </mxGeometry>
                </mxCell>
                <mxCell id="747" value="" style="shape=partialRectangle;html=1;whiteSpace=wrap;connectable=0;strokeColor=inherit;overflow=hidden;fillColor=none;top=0;left=0;bottom=0;right=0;pointerEvents=1;" vertex="1" parent="745">
                    <mxGeometry x="20" width="20" height="20" as="geometry">
                        <mxRectangle width="20" height="20" as="alternateBounds"/>
                    </mxGeometry>
                </mxCell>
                <mxCell id="748" value="" style="shape=partialRectangle;html=1;whiteSpace=wrap;connectable=0;strokeColor=inherit;overflow=hidden;fillColor=none;top=0;left=0;bottom=0;right=0;pointerEvents=1;" vertex="1" parent="745">
                    <mxGeometry x="40" width="20" height="20" as="geometry">
                        <mxRectangle width="20" height="20" as="alternateBounds"/>
                    </mxGeometry>
                </mxCell>
                <mxCell id="749" value="" style="shape=partialRectangle;html=1;whiteSpace=wrap;connectable=0;strokeColor=inherit;overflow=hidden;fillColor=none;top=0;left=0;bottom=0;right=0;pointerEvents=1;" vertex="1" parent="745">
                    <mxGeometry x="60" width="20" height="20" as="geometry">
                        <mxRectangle width="20" height="20" as="alternateBounds"/>
                    </mxGeometry>
                </mxCell>
                <mxCell id="750" value="" style="shape=partialRectangle;html=1;whiteSpace=wrap;connectable=0;strokeColor=inherit;overflow=hidden;fillColor=none;top=0;left=0;bottom=0;right=0;pointerEvents=1;" vertex="1" parent="745">
                    <mxGeometry x="80" width="20" height="20" as="geometry">
                        <mxRectangle width="20" height="20" as="alternateBounds"/>
                    </mxGeometry>
                </mxCell>
                <mxCell id="864" style="shape=partialRectangle;html=1;whiteSpace=wrap;connectable=0;strokeColor=#b85450;overflow=hidden;fillColor=#FF9999;top=1;left=1;bottom=1;right=1;pointerEvents=1;" vertex="1" parent="745">
                    <mxGeometry x="100" width="20" height="20" as="geometry">
                        <mxRectangle width="20" height="20" as="alternateBounds"/>
                    </mxGeometry>
                </mxCell>
                <mxCell id="751" value="" style="shape=tableRow;horizontal=0;startSize=0;swimlaneHead=0;swimlaneBody=0;strokeColor=inherit;top=0;left=0;bottom=0;right=0;collapsible=0;dropTarget=0;fillColor=none;points=[[0,0.5],[1,0.5]];portConstraint=eastwest;" vertex="1" parent="726">
                    <mxGeometry y="80" width="120" height="20" as="geometry"/>
                </mxCell>
                <mxCell id="752" value="" style="shape=partialRectangle;html=1;whiteSpace=wrap;connectable=0;strokeColor=inherit;overflow=hidden;fillColor=none;top=0;left=0;bottom=0;right=0;pointerEvents=1;" vertex="1" parent="751">
                    <mxGeometry width="20" height="20" as="geometry">
                        <mxRectangle width="20" height="20" as="alternateBounds"/>
                    </mxGeometry>
                </mxCell>
                <mxCell id="753" value="" style="shape=partialRectangle;html=1;whiteSpace=wrap;connectable=0;strokeColor=inherit;overflow=hidden;fillColor=none;top=0;left=0;bottom=0;right=0;pointerEvents=1;" vertex="1" parent="751">
                    <mxGeometry x="20" width="20" height="20" as="geometry">
                        <mxRectangle width="20" height="20" as="alternateBounds"/>
                    </mxGeometry>
                </mxCell>
                <mxCell id="754" value="" style="shape=partialRectangle;html=1;whiteSpace=wrap;connectable=0;strokeColor=inherit;overflow=hidden;fillColor=none;top=0;left=0;bottom=0;right=0;pointerEvents=1;" vertex="1" parent="751">
                    <mxGeometry x="40" width="20" height="20" as="geometry">
                        <mxRectangle width="20" height="20" as="alternateBounds"/>
                    </mxGeometry>
                </mxCell>
                <mxCell id="755" value="" style="shape=partialRectangle;html=1;whiteSpace=wrap;connectable=0;strokeColor=inherit;overflow=hidden;fillColor=none;top=0;left=0;bottom=0;right=0;pointerEvents=1;" vertex="1" parent="751">
                    <mxGeometry x="60" width="20" height="20" as="geometry">
                        <mxRectangle width="20" height="20" as="alternateBounds"/>
                    </mxGeometry>
                </mxCell>
                <mxCell id="756" value="" style="shape=partialRectangle;html=1;whiteSpace=wrap;connectable=0;strokeColor=inherit;overflow=hidden;fillColor=none;top=0;left=0;bottom=0;right=0;pointerEvents=1;" vertex="1" parent="751">
                    <mxGeometry x="80" width="20" height="20" as="geometry">
                        <mxRectangle width="20" height="20" as="alternateBounds"/>
                    </mxGeometry>
                </mxCell>
                <mxCell id="865" style="shape=partialRectangle;html=1;whiteSpace=wrap;connectable=0;strokeColor=#b85450;overflow=hidden;fillColor=#FF9999;top=1;left=1;bottom=1;right=1;pointerEvents=1;" vertex="1" parent="751">
                    <mxGeometry x="100" width="20" height="20" as="geometry">
                        <mxRectangle width="20" height="20" as="alternateBounds"/>
                    </mxGeometry>
                </mxCell>
                <mxCell id="855" style="shape=tableRow;horizontal=0;startSize=0;swimlaneHead=0;swimlaneBody=0;strokeColor=inherit;top=0;left=0;bottom=0;right=0;collapsible=0;dropTarget=0;fillColor=none;points=[[0,0.5],[1,0.5]];portConstraint=eastwest;" vertex="1" parent="726">
                    <mxGeometry y="100" width="120" height="20" as="geometry"/>
                </mxCell>
                <mxCell id="856" style="shape=partialRectangle;html=1;whiteSpace=wrap;connectable=0;strokeColor=#b85450;overflow=hidden;fillColor=#FF9999;top=1;left=1;bottom=1;right=1;pointerEvents=1;" vertex="1" parent="855">
                    <mxGeometry width="20" height="20" as="geometry">
                        <mxRectangle width="20" height="20" as="alternateBounds"/>
                    </mxGeometry>
                </mxCell>
                <mxCell id="857" style="shape=partialRectangle;html=1;whiteSpace=wrap;connectable=0;strokeColor=#b85450;overflow=hidden;fillColor=#FF9999;top=1;left=1;bottom=1;right=1;pointerEvents=1;" vertex="1" parent="855">
                    <mxGeometry x="20" width="20" height="20" as="geometry">
                        <mxRectangle width="20" height="20" as="alternateBounds"/>
                    </mxGeometry>
                </mxCell>
                <mxCell id="858" style="shape=partialRectangle;html=1;whiteSpace=wrap;connectable=0;strokeColor=#b85450;overflow=hidden;fillColor=#FF9999;top=1;left=1;bottom=1;right=1;pointerEvents=1;" vertex="1" parent="855">
                    <mxGeometry x="40" width="20" height="20" as="geometry">
                        <mxRectangle width="20" height="20" as="alternateBounds"/>
                    </mxGeometry>
                </mxCell>
                <mxCell id="859" style="shape=partialRectangle;html=1;whiteSpace=wrap;connectable=0;strokeColor=#b85450;overflow=hidden;fillColor=#FF9999;top=1;left=1;bottom=1;right=1;pointerEvents=1;" vertex="1" parent="855">
                    <mxGeometry x="60" width="20" height="20" as="geometry">
                        <mxRectangle width="20" height="20" as="alternateBounds"/>
                    </mxGeometry>
                </mxCell>
                <mxCell id="860" style="shape=partialRectangle;html=1;whiteSpace=wrap;connectable=0;strokeColor=#b85450;overflow=hidden;fillColor=#FF9999;top=1;left=1;bottom=1;right=1;pointerEvents=1;" vertex="1" parent="855">
                    <mxGeometry x="80" width="20" height="20" as="geometry">
                        <mxRectangle width="20" height="20" as="alternateBounds"/>
                    </mxGeometry>
                </mxCell>
                <mxCell id="866" style="shape=partialRectangle;html=1;whiteSpace=wrap;connectable=0;strokeColor=#b85450;overflow=hidden;fillColor=#FF9999;top=1;left=1;bottom=1;right=1;pointerEvents=1;" vertex="1" parent="855">
                    <mxGeometry x="100" width="20" height="20" as="geometry">
                        <mxRectangle width="20" height="20" as="alternateBounds"/>
                    </mxGeometry>
                </mxCell>
                <mxCell id="757" value="" style="childLayout=tableLayout;recursiveResize=0;shadow=0;fillColor=#d5e8d4;strokeColor=#82b366;" vertex="1" parent="1">
                    <mxGeometry x="1060" y="380" width="60" height="120" as="geometry"/>
                </mxCell>
                <mxCell id="758" value="" style="shape=tableRow;horizontal=0;startSize=0;swimlaneHead=0;swimlaneBody=0;top=0;left=0;bottom=0;right=0;dropTarget=0;collapsible=0;recursiveResize=0;expand=0;fontStyle=0;fillColor=#d5e8d4;strokeColor=#82b366;" vertex="1" parent="757">
                    <mxGeometry width="60" height="20" as="geometry"/>
                </mxCell>
                <mxCell id="759" value="" style="connectable=0;recursiveResize=0;strokeColor=#82b366;fillColor=#d5e8d4;align=center;whiteSpace=wrap;html=1;" vertex="1" parent="758">
                    <mxGeometry width="20" height="20" as="geometry">
                        <mxRectangle width="20" height="20" as="alternateBounds"/>
                    </mxGeometry>
                </mxCell>
                <mxCell id="760" value="" style="connectable=0;recursiveResize=0;strokeColor=#82b366;fillColor=#d5e8d4;align=center;whiteSpace=wrap;html=1;" vertex="1" parent="758">
                    <mxGeometry x="20" width="20" height="20" as="geometry">
                        <mxRectangle width="20" height="20" as="alternateBounds"/>
                    </mxGeometry>
                </mxCell>
                <mxCell id="761" value="" style="connectable=0;recursiveResize=0;strokeColor=#82b366;fillColor=#d5e8d4;align=center;whiteSpace=wrap;html=1;" vertex="1" parent="758">
                    <mxGeometry x="40" width="20" height="20" as="geometry">
                        <mxRectangle width="20" height="20" as="alternateBounds"/>
                    </mxGeometry>
                </mxCell>
                <mxCell id="762" value="" style="shape=tableRow;horizontal=0;startSize=0;swimlaneHead=0;swimlaneBody=0;top=0;left=0;bottom=0;right=0;dropTarget=0;collapsible=0;recursiveResize=0;expand=0;fontStyle=0;fillColor=#d5e8d4;strokeColor=#82b366;" vertex="1" parent="757">
                    <mxGeometry y="20" width="60" height="20" as="geometry"/>
                </mxCell>
                <mxCell id="763" value="" style="connectable=0;recursiveResize=0;strokeColor=#82b366;fillColor=#d5e8d4;align=center;whiteSpace=wrap;html=1;" vertex="1" parent="762">
                    <mxGeometry width="20" height="20" as="geometry">
                        <mxRectangle width="20" height="20" as="alternateBounds"/>
                    </mxGeometry>
                </mxCell>
                <mxCell id="764" value="" style="connectable=0;recursiveResize=0;strokeColor=#82b366;fillColor=#d5e8d4;align=center;whiteSpace=wrap;html=1;" vertex="1" parent="762">
                    <mxGeometry x="20" width="20" height="20" as="geometry">
                        <mxRectangle width="20" height="20" as="alternateBounds"/>
                    </mxGeometry>
                </mxCell>
                <mxCell id="765" value="" style="connectable=0;recursiveResize=0;strokeColor=#82b366;fillColor=#d5e8d4;align=center;whiteSpace=wrap;html=1;" vertex="1" parent="762">
                    <mxGeometry x="40" width="20" height="20" as="geometry">
                        <mxRectangle width="20" height="20" as="alternateBounds"/>
                    </mxGeometry>
                </mxCell>
                <mxCell id="766" value="" style="shape=tableRow;horizontal=0;startSize=0;swimlaneHead=0;swimlaneBody=0;top=0;left=0;bottom=0;right=0;dropTarget=0;collapsible=0;recursiveResize=0;expand=0;fontStyle=0;fillColor=#d5e8d4;strokeColor=#82b366;" vertex="1" parent="757">
                    <mxGeometry y="40" width="60" height="20" as="geometry"/>
                </mxCell>
                <mxCell id="767" value="" style="connectable=0;recursiveResize=0;strokeColor=#82b366;fillColor=#d5e8d4;align=center;whiteSpace=wrap;html=1;" vertex="1" parent="766">
                    <mxGeometry width="20" height="20" as="geometry">
                        <mxRectangle width="20" height="20" as="alternateBounds"/>
                    </mxGeometry>
                </mxCell>
                <mxCell id="768" value="" style="connectable=0;recursiveResize=0;strokeColor=#82b366;fillColor=#d5e8d4;align=center;whiteSpace=wrap;html=1;" vertex="1" parent="766">
                    <mxGeometry x="20" width="20" height="20" as="geometry">
                        <mxRectangle width="20" height="20" as="alternateBounds"/>
                    </mxGeometry>
                </mxCell>
                <mxCell id="769" value="" style="connectable=0;recursiveResize=0;strokeColor=#82b366;fillColor=#d5e8d4;align=center;whiteSpace=wrap;html=1;" vertex="1" parent="766">
                    <mxGeometry x="40" width="20" height="20" as="geometry">
                        <mxRectangle width="20" height="20" as="alternateBounds"/>
                    </mxGeometry>
                </mxCell>
                <mxCell id="770" style="shape=tableRow;horizontal=0;startSize=0;swimlaneHead=0;swimlaneBody=0;top=0;left=0;bottom=0;right=0;dropTarget=0;collapsible=0;recursiveResize=0;expand=0;fontStyle=0;fillColor=#d5e8d4;strokeColor=#82b366;" vertex="1" parent="757">
                    <mxGeometry y="60" width="60" height="20" as="geometry"/>
                </mxCell>
                <mxCell id="771" value="" style="connectable=0;recursiveResize=0;strokeColor=#82b366;fillColor=#d5e8d4;align=center;whiteSpace=wrap;html=1;" vertex="1" parent="770">
                    <mxGeometry width="20" height="20" as="geometry">
                        <mxRectangle width="20" height="20" as="alternateBounds"/>
                    </mxGeometry>
                </mxCell>
                <mxCell id="772" value="" style="connectable=0;recursiveResize=0;strokeColor=#82b366;fillColor=#d5e8d4;align=center;whiteSpace=wrap;html=1;" vertex="1" parent="770">
                    <mxGeometry x="20" width="20" height="20" as="geometry">
                        <mxRectangle width="20" height="20" as="alternateBounds"/>
                    </mxGeometry>
                </mxCell>
                <mxCell id="773" value="" style="connectable=0;recursiveResize=0;strokeColor=#82b366;fillColor=#d5e8d4;align=center;whiteSpace=wrap;html=1;" vertex="1" parent="770">
                    <mxGeometry x="40" width="20" height="20" as="geometry">
                        <mxRectangle width="20" height="20" as="alternateBounds"/>
                    </mxGeometry>
                </mxCell>
                <mxCell id="879" style="shape=tableRow;horizontal=0;startSize=0;swimlaneHead=0;swimlaneBody=0;top=0;left=0;bottom=0;right=0;dropTarget=0;collapsible=0;recursiveResize=0;expand=0;fontStyle=0;fillColor=#d5e8d4;strokeColor=#82b366;" vertex="1" parent="757">
                    <mxGeometry y="80" width="60" height="20" as="geometry"/>
                </mxCell>
                <mxCell id="880" style="connectable=0;recursiveResize=0;strokeColor=#82b366;fillColor=#d5e8d4;align=center;whiteSpace=wrap;html=1;" vertex="1" parent="879">
                    <mxGeometry width="20" height="20" as="geometry">
                        <mxRectangle width="20" height="20" as="alternateBounds"/>
                    </mxGeometry>
                </mxCell>
                <mxCell id="881" style="connectable=0;recursiveResize=0;strokeColor=#82b366;fillColor=#d5e8d4;align=center;whiteSpace=wrap;html=1;" vertex="1" parent="879">
                    <mxGeometry x="20" width="20" height="20" as="geometry">
                        <mxRectangle width="20" height="20" as="alternateBounds"/>
                    </mxGeometry>
                </mxCell>
                <mxCell id="882" style="connectable=0;recursiveResize=0;strokeColor=#82b366;fillColor=#d5e8d4;align=center;whiteSpace=wrap;html=1;" vertex="1" parent="879">
                    <mxGeometry x="40" width="20" height="20" as="geometry">
                        <mxRectangle width="20" height="20" as="alternateBounds"/>
                    </mxGeometry>
                </mxCell>
                <mxCell id="774" style="shape=tableRow;horizontal=0;startSize=0;swimlaneHead=0;swimlaneBody=0;top=0;left=0;bottom=0;right=0;dropTarget=0;collapsible=0;recursiveResize=0;expand=0;fontStyle=0;fillColor=#d5e8d4;strokeColor=#82b366;" vertex="1" parent="757">
                    <mxGeometry y="100" width="60" height="20" as="geometry"/>
                </mxCell>
                <mxCell id="775" value="" style="connectable=0;recursiveResize=0;strokeColor=#82b366;fillColor=#99FF99;align=center;whiteSpace=wrap;html=1;" vertex="1" parent="774">
                    <mxGeometry width="20" height="20" as="geometry">
                        <mxRectangle width="20" height="20" as="alternateBounds"/>
                    </mxGeometry>
                </mxCell>
                <mxCell id="776" value="" style="connectable=0;recursiveResize=0;strokeColor=#82b366;fillColor=#99FF99;align=center;whiteSpace=wrap;html=1;" vertex="1" parent="774">
                    <mxGeometry x="20" width="20" height="20" as="geometry">
                        <mxRectangle width="20" height="20" as="alternateBounds"/>
                    </mxGeometry>
                </mxCell>
                <mxCell id="777" value="" style="connectable=0;recursiveResize=0;strokeColor=#82b366;fillColor=#99FF99;align=center;whiteSpace=wrap;html=1;" vertex="1" parent="774">
                    <mxGeometry x="40" width="20" height="20" as="geometry">
                        <mxRectangle width="20" height="20" as="alternateBounds"/>
                    </mxGeometry>
                </mxCell>
                <mxCell id="778" value="" style="childLayout=tableLayout;recursiveResize=0;shadow=0;fillColor=#ffe6cc;strokeColor=#d79b00;direction=north;" vertex="1" parent="1">
                    <mxGeometry x="780" y="270" width="120" height="60" as="geometry"/>
                </mxCell>
                <mxCell id="779" value="" style="shape=tableRow;horizontal=0;startSize=0;swimlaneHead=0;swimlaneBody=0;top=0;left=0;bottom=0;right=0;dropTarget=0;collapsible=0;recursiveResize=0;expand=0;fontStyle=0;fillColor=none;strokeColor=inherit;" vertex="1" parent="778">
                    <mxGeometry width="120" height="20" as="geometry"/>
                </mxCell>
                <mxCell id="780" value="" style="connectable=0;recursiveResize=0;strokeColor=#d79b00;fillColor=#ffe6cc;align=center;whiteSpace=wrap;html=1;" vertex="1" parent="779">
                    <mxGeometry width="20" height="20" as="geometry">
                        <mxRectangle width="20" height="20" as="alternateBounds"/>
                    </mxGeometry>
                </mxCell>
                <mxCell id="781" value="" style="connectable=0;recursiveResize=0;strokeColor=#d79b00;fillColor=#ffe6cc;align=center;whiteSpace=wrap;html=1;" vertex="1" parent="779">
                    <mxGeometry x="20" width="20" height="20" as="geometry">
                        <mxRectangle width="20" height="20" as="alternateBounds"/>
                    </mxGeometry>
                </mxCell>
                <mxCell id="782" value="" style="connectable=0;recursiveResize=0;strokeColor=#d79b00;fillColor=#ffe6cc;align=center;whiteSpace=wrap;html=1;" vertex="1" parent="779">
                    <mxGeometry x="40" width="20" height="20" as="geometry">
                        <mxRectangle width="20" height="20" as="alternateBounds"/>
                    </mxGeometry>
                </mxCell>
                <mxCell id="783" style="connectable=0;recursiveResize=0;strokeColor=#d79b00;fillColor=#ffe6cc;align=center;whiteSpace=wrap;html=1;" vertex="1" parent="779">
                    <mxGeometry x="60" width="20" height="20" as="geometry">
                        <mxRectangle width="20" height="20" as="alternateBounds"/>
                    </mxGeometry>
                </mxCell>
                <mxCell id="784" style="connectable=0;recursiveResize=0;strokeColor=#d79b00;fillColor=#ffe6cc;align=center;whiteSpace=wrap;html=1;" vertex="1" parent="779">
                    <mxGeometry x="80" width="20" height="20" as="geometry">
                        <mxRectangle width="20" height="20" as="alternateBounds"/>
                    </mxGeometry>
                </mxCell>
                <mxCell id="848" style="connectable=0;recursiveResize=0;strokeColor=#d79b00;fillColor=#FFB366;align=center;whiteSpace=wrap;html=1;" vertex="1" parent="779">
                    <mxGeometry x="100" width="20" height="20" as="geometry">
                        <mxRectangle width="20" height="20" as="alternateBounds"/>
                    </mxGeometry>
                </mxCell>
                <mxCell id="785" value="" style="shape=tableRow;horizontal=0;startSize=0;swimlaneHead=0;swimlaneBody=0;top=0;left=0;bottom=0;right=0;dropTarget=0;collapsible=0;recursiveResize=0;expand=0;fontStyle=0;fillColor=none;strokeColor=inherit;" vertex="1" parent="778">
                    <mxGeometry y="20" width="120" height="20" as="geometry"/>
                </mxCell>
                <mxCell id="786" value="" style="connectable=0;recursiveResize=0;strokeColor=inherit;fillColor=none;align=center;whiteSpace=wrap;html=1;" vertex="1" parent="785">
                    <mxGeometry width="20" height="20" as="geometry">
                        <mxRectangle width="20" height="20" as="alternateBounds"/>
                    </mxGeometry>
                </mxCell>
                <mxCell id="787" value="" style="connectable=0;recursiveResize=0;strokeColor=inherit;fillColor=none;align=center;whiteSpace=wrap;html=1;" vertex="1" parent="785">
                    <mxGeometry x="20" width="20" height="20" as="geometry">
                        <mxRectangle width="20" height="20" as="alternateBounds"/>
                    </mxGeometry>
                </mxCell>
                <mxCell id="788" value="" style="connectable=0;recursiveResize=0;strokeColor=inherit;fillColor=none;align=center;whiteSpace=wrap;html=1;" vertex="1" parent="785">
                    <mxGeometry x="40" width="20" height="20" as="geometry">
                        <mxRectangle width="20" height="20" as="alternateBounds"/>
                    </mxGeometry>
                </mxCell>
                <mxCell id="789" style="connectable=0;recursiveResize=0;strokeColor=inherit;fillColor=none;align=center;whiteSpace=wrap;html=1;" vertex="1" parent="785">
                    <mxGeometry x="60" width="20" height="20" as="geometry">
                        <mxRectangle width="20" height="20" as="alternateBounds"/>
                    </mxGeometry>
                </mxCell>
                <mxCell id="790" style="connectable=0;recursiveResize=0;strokeColor=inherit;fillColor=none;align=center;whiteSpace=wrap;html=1;" vertex="1" parent="785">
                    <mxGeometry x="80" width="20" height="20" as="geometry">
                        <mxRectangle width="20" height="20" as="alternateBounds"/>
                    </mxGeometry>
                </mxCell>
                <mxCell id="849" style="connectable=0;recursiveResize=0;strokeColor=inherit;fillColor=#FFB366;align=center;whiteSpace=wrap;html=1;" vertex="1" parent="785">
                    <mxGeometry x="100" width="20" height="20" as="geometry">
                        <mxRectangle width="20" height="20" as="alternateBounds"/>
                    </mxGeometry>
                </mxCell>
                <mxCell id="791" value="" style="shape=tableRow;horizontal=0;startSize=0;swimlaneHead=0;swimlaneBody=0;top=0;left=0;bottom=0;right=0;dropTarget=0;collapsible=0;recursiveResize=0;expand=0;fontStyle=0;fillColor=none;strokeColor=inherit;" vertex="1" parent="778">
                    <mxGeometry y="40" width="120" height="20" as="geometry"/>
                </mxCell>
                <mxCell id="792" value="" style="connectable=0;recursiveResize=0;strokeColor=inherit;fillColor=none;align=center;whiteSpace=wrap;html=1;" vertex="1" parent="791">
                    <mxGeometry width="20" height="20" as="geometry">
                        <mxRectangle width="20" height="20" as="alternateBounds"/>
                    </mxGeometry>
                </mxCell>
                <mxCell id="793" value="" style="connectable=0;recursiveResize=0;strokeColor=#d79b00;fillColor=#ffe6cc;align=center;whiteSpace=wrap;html=1;" vertex="1" parent="791">
                    <mxGeometry x="20" width="20" height="20" as="geometry">
                        <mxRectangle width="20" height="20" as="alternateBounds"/>
                    </mxGeometry>
                </mxCell>
                <mxCell id="794" value="" style="connectable=0;recursiveResize=0;strokeColor=inherit;fillColor=none;align=center;whiteSpace=wrap;html=1;" vertex="1" parent="791">
                    <mxGeometry x="40" width="20" height="20" as="geometry">
                        <mxRectangle width="20" height="20" as="alternateBounds"/>
                    </mxGeometry>
                </mxCell>
                <mxCell id="795" style="connectable=0;recursiveResize=0;strokeColor=inherit;fillColor=none;align=center;whiteSpace=wrap;html=1;" vertex="1" parent="791">
                    <mxGeometry x="60" width="20" height="20" as="geometry">
                        <mxRectangle width="20" height="20" as="alternateBounds"/>
                    </mxGeometry>
                </mxCell>
                <mxCell id="796" style="connectable=0;recursiveResize=0;strokeColor=inherit;fillColor=none;align=center;whiteSpace=wrap;html=1;" vertex="1" parent="791">
                    <mxGeometry x="80" width="20" height="20" as="geometry">
                        <mxRectangle width="20" height="20" as="alternateBounds"/>
                    </mxGeometry>
                </mxCell>
                <mxCell id="850" style="connectable=0;recursiveResize=0;strokeColor=inherit;fillColor=#FFB366;align=center;whiteSpace=wrap;html=1;" vertex="1" parent="791">
                    <mxGeometry x="100" width="20" height="20" as="geometry">
                        <mxRectangle width="20" height="20" as="alternateBounds"/>
                    </mxGeometry>
                </mxCell>
                <mxCell id="797" value="" style="shape=sumEllipse;perimeter=ellipsePerimeter;whiteSpace=wrap;html=1;backgroundOutline=1;" vertex="1" parent="1">
                    <mxGeometry x="830" y="150" width="20" height="20" as="geometry"/>
                </mxCell>
                <mxCell id="798" value="" style="shape=table;startSize=0;container=1;collapsible=0;childLayout=tableLayout;fillColor=#f8cecc;strokeColor=#b85450;" vertex="1" parent="1">
                    <mxGeometry x="1040" y="100" width="120" height="120" as="geometry"/>
                </mxCell>
                <mxCell id="799" value="" style="shape=tableRow;horizontal=0;startSize=0;swimlaneHead=0;swimlaneBody=0;strokeColor=inherit;top=0;left=0;bottom=0;right=0;collapsible=0;dropTarget=0;fillColor=none;points=[[0,0.5],[1,0.5]];portConstraint=eastwest;" vertex="1" parent="798">
                    <mxGeometry width="120" height="20" as="geometry"/>
                </mxCell>
                <mxCell id="800" value="" style="shape=partialRectangle;html=1;whiteSpace=wrap;connectable=0;strokeColor=inherit;overflow=hidden;fillColor=none;top=0;left=0;bottom=0;right=0;pointerEvents=1;" vertex="1" parent="799">
                    <mxGeometry width="20" height="20" as="geometry">
                        <mxRectangle width="20" height="20" as="alternateBounds"/>
                    </mxGeometry>
                </mxCell>
                <mxCell id="801" value="" style="shape=partialRectangle;html=1;whiteSpace=wrap;connectable=0;strokeColor=#B85450;overflow=hidden;fillColor=#f5f5f5;top=1;left=1;bottom=1;right=1;pointerEvents=1;fontColor=#333333;" vertex="1" parent="799">
                    <mxGeometry x="20" width="20" height="20" as="geometry">
                        <mxRectangle width="20" height="20" as="alternateBounds"/>
                    </mxGeometry>
                </mxCell>
                <mxCell id="802" value="" style="shape=partialRectangle;html=1;whiteSpace=wrap;connectable=0;strokeColor=#B85450;overflow=hidden;fillColor=#f5f5f5;top=1;left=1;bottom=1;right=1;pointerEvents=1;fontColor=#333333;" vertex="1" parent="799">
                    <mxGeometry x="40" width="20" height="20" as="geometry">
                        <mxRectangle width="20" height="20" as="alternateBounds"/>
                    </mxGeometry>
                </mxCell>
                <mxCell id="803" value="" style="shape=partialRectangle;html=1;whiteSpace=wrap;connectable=0;strokeColor=#B85450;overflow=hidden;fillColor=#f5f5f5;top=1;left=1;bottom=1;right=1;pointerEvents=1;fontColor=#333333;" vertex="1" parent="799">
                    <mxGeometry x="60" width="20" height="20" as="geometry">
                        <mxRectangle width="20" height="20" as="alternateBounds"/>
                    </mxGeometry>
                </mxCell>
                <mxCell id="804" value="" style="shape=partialRectangle;html=1;whiteSpace=wrap;connectable=0;strokeColor=#B85450;overflow=hidden;fillColor=#f5f5f5;top=1;left=1;bottom=1;right=1;pointerEvents=1;fontColor=#333333;" vertex="1" parent="799">
                    <mxGeometry x="80" width="20" height="20" as="geometry">
                        <mxRectangle width="20" height="20" as="alternateBounds"/>
                    </mxGeometry>
                </mxCell>
                <mxCell id="867" style="shape=partialRectangle;html=1;whiteSpace=wrap;connectable=0;strokeColor=#B85450;overflow=hidden;fillColor=#f5f5f5;top=1;left=1;bottom=1;right=1;pointerEvents=1;fontColor=#333333;" vertex="1" parent="799">
                    <mxGeometry x="100" width="20" height="20" as="geometry">
                        <mxRectangle width="20" height="20" as="alternateBounds"/>
                    </mxGeometry>
                </mxCell>
                <mxCell id="805" value="" style="shape=tableRow;horizontal=0;startSize=0;swimlaneHead=0;swimlaneBody=0;strokeColor=inherit;top=0;left=0;bottom=0;right=0;collapsible=0;dropTarget=0;fillColor=none;points=[[0,0.5],[1,0.5]];portConstraint=eastwest;" vertex="1" parent="798">
                    <mxGeometry y="20" width="120" height="20" as="geometry"/>
                </mxCell>
                <mxCell id="806" value="" style="shape=partialRectangle;html=1;whiteSpace=wrap;connectable=0;strokeColor=inherit;overflow=hidden;fillColor=none;top=0;left=0;bottom=0;right=0;pointerEvents=1;" vertex="1" parent="805">
                    <mxGeometry width="20" height="20" as="geometry">
                        <mxRectangle width="20" height="20" as="alternateBounds"/>
                    </mxGeometry>
                </mxCell>
                <mxCell id="807" value="" style="shape=partialRectangle;html=1;whiteSpace=wrap;connectable=0;strokeColor=inherit;overflow=hidden;fillColor=none;top=0;left=0;bottom=0;right=0;pointerEvents=1;" vertex="1" parent="805">
                    <mxGeometry x="20" width="20" height="20" as="geometry">
                        <mxRectangle width="20" height="20" as="alternateBounds"/>
                    </mxGeometry>
                </mxCell>
                <mxCell id="808" value="" style="shape=partialRectangle;html=1;whiteSpace=wrap;connectable=0;strokeColor=#B85450;overflow=hidden;fillColor=#f5f5f5;top=1;left=1;bottom=1;right=1;pointerEvents=1;fontColor=#333333;" vertex="1" parent="805">
                    <mxGeometry x="40" width="20" height="20" as="geometry">
                        <mxRectangle width="20" height="20" as="alternateBounds"/>
                    </mxGeometry>
                </mxCell>
                <mxCell id="809" value="" style="shape=partialRectangle;html=1;whiteSpace=wrap;connectable=0;strokeColor=#B85450;overflow=hidden;fillColor=#f5f5f5;top=1;left=1;bottom=1;right=1;pointerEvents=1;fontColor=#333333;" vertex="1" parent="805">
                    <mxGeometry x="60" width="20" height="20" as="geometry">
                        <mxRectangle width="20" height="20" as="alternateBounds"/>
                    </mxGeometry>
                </mxCell>
                <mxCell id="810" value="" style="shape=partialRectangle;html=1;whiteSpace=wrap;connectable=0;strokeColor=#B85450;overflow=hidden;fillColor=#f5f5f5;top=1;left=1;bottom=1;right=1;pointerEvents=1;fontColor=#333333;" vertex="1" parent="805">
                    <mxGeometry x="80" width="20" height="20" as="geometry">
                        <mxRectangle width="20" height="20" as="alternateBounds"/>
                    </mxGeometry>
                </mxCell>
                <mxCell id="868" style="shape=partialRectangle;html=1;whiteSpace=wrap;connectable=0;strokeColor=#B85450;overflow=hidden;fillColor=#f5f5f5;top=1;left=1;bottom=1;right=1;pointerEvents=1;fontColor=#333333;" vertex="1" parent="805">
                    <mxGeometry x="100" width="20" height="20" as="geometry">
                        <mxRectangle width="20" height="20" as="alternateBounds"/>
                    </mxGeometry>
                </mxCell>
                <mxCell id="811" value="" style="shape=tableRow;horizontal=0;startSize=0;swimlaneHead=0;swimlaneBody=0;strokeColor=inherit;top=0;left=0;bottom=0;right=0;collapsible=0;dropTarget=0;fillColor=none;points=[[0,0.5],[1,0.5]];portConstraint=eastwest;" vertex="1" parent="798">
                    <mxGeometry y="40" width="120" height="20" as="geometry"/>
                </mxCell>
                <mxCell id="812" value="" style="shape=partialRectangle;html=1;whiteSpace=wrap;connectable=0;strokeColor=inherit;overflow=hidden;fillColor=none;top=0;left=0;bottom=0;right=0;pointerEvents=1;" vertex="1" parent="811">
                    <mxGeometry width="20" height="20" as="geometry">
                        <mxRectangle width="20" height="20" as="alternateBounds"/>
                    </mxGeometry>
                </mxCell>
                <mxCell id="813" value="" style="shape=partialRectangle;html=1;whiteSpace=wrap;connectable=0;strokeColor=inherit;overflow=hidden;fillColor=none;top=0;left=0;bottom=0;right=0;pointerEvents=1;" vertex="1" parent="811">
                    <mxGeometry x="20" width="20" height="20" as="geometry">
                        <mxRectangle width="20" height="20" as="alternateBounds"/>
                    </mxGeometry>
                </mxCell>
                <mxCell id="814" value="" style="shape=partialRectangle;html=1;whiteSpace=wrap;connectable=0;strokeColor=inherit;overflow=hidden;fillColor=none;top=0;left=0;bottom=0;right=0;pointerEvents=1;" vertex="1" parent="811">
                    <mxGeometry x="40" width="20" height="20" as="geometry">
                        <mxRectangle width="20" height="20" as="alternateBounds"/>
                    </mxGeometry>
                </mxCell>
                <mxCell id="815" value="" style="shape=partialRectangle;html=1;whiteSpace=wrap;connectable=0;strokeColor=#B85450;overflow=hidden;fillColor=#f5f5f5;top=1;left=1;bottom=1;right=1;pointerEvents=1;fontColor=#333333;" vertex="1" parent="811">
                    <mxGeometry x="60" width="20" height="20" as="geometry">
                        <mxRectangle width="20" height="20" as="alternateBounds"/>
                    </mxGeometry>
                </mxCell>
                <mxCell id="816" value="" style="shape=partialRectangle;html=1;whiteSpace=wrap;connectable=0;strokeColor=#B85450;overflow=hidden;fillColor=#f5f5f5;top=1;left=1;bottom=1;right=1;pointerEvents=1;fontColor=#333333;" vertex="1" parent="811">
                    <mxGeometry x="80" width="20" height="20" as="geometry">
                        <mxRectangle width="20" height="20" as="alternateBounds"/>
                    </mxGeometry>
                </mxCell>
                <mxCell id="869" style="shape=partialRectangle;html=1;whiteSpace=wrap;connectable=0;strokeColor=#B85450;overflow=hidden;fillColor=#f5f5f5;top=1;left=1;bottom=1;right=1;pointerEvents=1;fontColor=#333333;" vertex="1" parent="811">
                    <mxGeometry x="100" width="20" height="20" as="geometry">
                        <mxRectangle width="20" height="20" as="alternateBounds"/>
                    </mxGeometry>
                </mxCell>
                <mxCell id="817" value="" style="shape=tableRow;horizontal=0;startSize=0;swimlaneHead=0;swimlaneBody=0;strokeColor=inherit;top=0;left=0;bottom=0;right=0;collapsible=0;dropTarget=0;fillColor=none;points=[[0,0.5],[1,0.5]];portConstraint=eastwest;" vertex="1" parent="798">
                    <mxGeometry y="60" width="120" height="20" as="geometry"/>
                </mxCell>
                <mxCell id="818" value="" style="shape=partialRectangle;html=1;whiteSpace=wrap;connectable=0;strokeColor=inherit;overflow=hidden;fillColor=none;top=0;left=0;bottom=0;right=0;pointerEvents=1;" vertex="1" parent="817">
                    <mxGeometry width="20" height="20" as="geometry">
                        <mxRectangle width="20" height="20" as="alternateBounds"/>
                    </mxGeometry>
                </mxCell>
                <mxCell id="819" value="" style="shape=partialRectangle;html=1;whiteSpace=wrap;connectable=0;strokeColor=inherit;overflow=hidden;fillColor=none;top=0;left=0;bottom=0;right=0;pointerEvents=1;" vertex="1" parent="817">
                    <mxGeometry x="20" width="20" height="20" as="geometry">
                        <mxRectangle width="20" height="20" as="alternateBounds"/>
                    </mxGeometry>
                </mxCell>
                <mxCell id="820" value="" style="shape=partialRectangle;html=1;whiteSpace=wrap;connectable=0;strokeColor=inherit;overflow=hidden;fillColor=none;top=0;left=0;bottom=0;right=0;pointerEvents=1;" vertex="1" parent="817">
                    <mxGeometry x="40" width="20" height="20" as="geometry">
                        <mxRectangle width="20" height="20" as="alternateBounds"/>
                    </mxGeometry>
                </mxCell>
                <mxCell id="821" value="" style="shape=partialRectangle;html=1;whiteSpace=wrap;connectable=0;strokeColor=inherit;overflow=hidden;fillColor=none;top=0;left=0;bottom=0;right=0;pointerEvents=1;" vertex="1" parent="817">
                    <mxGeometry x="60" width="20" height="20" as="geometry">
                        <mxRectangle width="20" height="20" as="alternateBounds"/>
                    </mxGeometry>
                </mxCell>
                <mxCell id="822" value="" style="shape=partialRectangle;html=1;whiteSpace=wrap;connectable=0;strokeColor=#B85450;overflow=hidden;fillColor=#f5f5f5;top=1;left=1;bottom=1;right=1;pointerEvents=1;fontColor=#333333;" vertex="1" parent="817">
                    <mxGeometry x="80" width="20" height="20" as="geometry">
                        <mxRectangle width="20" height="20" as="alternateBounds"/>
                    </mxGeometry>
                </mxCell>
                <mxCell id="870" style="shape=partialRectangle;html=1;whiteSpace=wrap;connectable=0;strokeColor=#B85450;overflow=hidden;fillColor=#f5f5f5;top=1;left=1;bottom=1;right=1;pointerEvents=1;fontColor=#333333;" vertex="1" parent="817">
                    <mxGeometry x="100" width="20" height="20" as="geometry">
                        <mxRectangle width="20" height="20" as="alternateBounds"/>
                    </mxGeometry>
                </mxCell>
                <mxCell id="823" value="" style="shape=tableRow;horizontal=0;startSize=0;swimlaneHead=0;swimlaneBody=0;strokeColor=inherit;top=0;left=0;bottom=0;right=0;collapsible=0;dropTarget=0;fillColor=none;points=[[0,0.5],[1,0.5]];portConstraint=eastwest;" vertex="1" parent="798">
                    <mxGeometry y="80" width="120" height="20" as="geometry"/>
                </mxCell>
                <mxCell id="824" value="" style="shape=partialRectangle;html=1;whiteSpace=wrap;connectable=0;strokeColor=inherit;overflow=hidden;fillColor=none;top=0;left=0;bottom=0;right=0;pointerEvents=1;" vertex="1" parent="823">
                    <mxGeometry width="20" height="20" as="geometry">
                        <mxRectangle width="20" height="20" as="alternateBounds"/>
                    </mxGeometry>
                </mxCell>
                <mxCell id="825" value="" style="shape=partialRectangle;html=1;whiteSpace=wrap;connectable=0;strokeColor=inherit;overflow=hidden;fillColor=none;top=0;left=0;bottom=0;right=0;pointerEvents=1;" vertex="1" parent="823">
                    <mxGeometry x="20" width="20" height="20" as="geometry">
                        <mxRectangle width="20" height="20" as="alternateBounds"/>
                    </mxGeometry>
                </mxCell>
                <mxCell id="826" value="" style="shape=partialRectangle;html=1;whiteSpace=wrap;connectable=0;strokeColor=inherit;overflow=hidden;fillColor=none;top=0;left=0;bottom=0;right=0;pointerEvents=1;" vertex="1" parent="823">
                    <mxGeometry x="40" width="20" height="20" as="geometry">
                        <mxRectangle width="20" height="20" as="alternateBounds"/>
                    </mxGeometry>
                </mxCell>
                <mxCell id="827" value="" style="shape=partialRectangle;html=1;whiteSpace=wrap;connectable=0;strokeColor=inherit;overflow=hidden;fillColor=none;top=0;left=0;bottom=0;right=0;pointerEvents=1;" vertex="1" parent="823">
                    <mxGeometry x="60" width="20" height="20" as="geometry">
                        <mxRectangle width="20" height="20" as="alternateBounds"/>
                    </mxGeometry>
                </mxCell>
                <mxCell id="828" value="" style="shape=partialRectangle;html=1;whiteSpace=wrap;connectable=0;strokeColor=inherit;overflow=hidden;fillColor=none;top=0;left=0;bottom=0;right=0;pointerEvents=1;" vertex="1" parent="823">
                    <mxGeometry x="80" width="20" height="20" as="geometry">
                        <mxRectangle width="20" height="20" as="alternateBounds"/>
                    </mxGeometry>
                </mxCell>
                <mxCell id="871" style="shape=partialRectangle;html=1;whiteSpace=wrap;connectable=0;strokeColor=#B85450;overflow=hidden;fillColor=#f5f5f5;top=1;left=1;bottom=1;right=1;pointerEvents=1;fontColor=#333333;" vertex="1" parent="823">
                    <mxGeometry x="100" width="20" height="20" as="geometry">
                        <mxRectangle width="20" height="20" as="alternateBounds"/>
                    </mxGeometry>
                </mxCell>
                <mxCell id="872" style="shape=tableRow;horizontal=0;startSize=0;swimlaneHead=0;swimlaneBody=0;strokeColor=inherit;top=0;left=0;bottom=0;right=0;collapsible=0;dropTarget=0;fillColor=none;points=[[0,0.5],[1,0.5]];portConstraint=eastwest;" vertex="1" parent="798">
                    <mxGeometry y="100" width="120" height="20" as="geometry"/>
                </mxCell>
                <mxCell id="873" style="shape=partialRectangle;html=1;whiteSpace=wrap;connectable=0;strokeColor=#b85450;overflow=hidden;fillColor=#FF9999;top=1;left=1;bottom=1;right=1;pointerEvents=1;" vertex="1" parent="872">
                    <mxGeometry width="20" height="20" as="geometry">
                        <mxRectangle width="20" height="20" as="alternateBounds"/>
                    </mxGeometry>
                </mxCell>
                <mxCell id="874" style="shape=partialRectangle;html=1;whiteSpace=wrap;connectable=0;strokeColor=#b85450;overflow=hidden;fillColor=#FF9999;top=1;left=1;bottom=1;right=1;pointerEvents=1;" vertex="1" parent="872">
                    <mxGeometry x="20" width="20" height="20" as="geometry">
                        <mxRectangle width="20" height="20" as="alternateBounds"/>
                    </mxGeometry>
                </mxCell>
                <mxCell id="875" style="shape=partialRectangle;html=1;whiteSpace=wrap;connectable=0;strokeColor=#b85450;overflow=hidden;fillColor=#FF9999;top=1;left=1;bottom=1;right=1;pointerEvents=1;" vertex="1" parent="872">
                    <mxGeometry x="40" width="20" height="20" as="geometry">
                        <mxRectangle width="20" height="20" as="alternateBounds"/>
                    </mxGeometry>
                </mxCell>
                <mxCell id="876" style="shape=partialRectangle;html=1;whiteSpace=wrap;connectable=0;strokeColor=#b85450;overflow=hidden;fillColor=#FF9999;top=1;left=1;bottom=1;right=1;pointerEvents=1;" vertex="1" parent="872">
                    <mxGeometry x="60" width="20" height="20" as="geometry">
                        <mxRectangle width="20" height="20" as="alternateBounds"/>
                    </mxGeometry>
                </mxCell>
                <mxCell id="877" style="shape=partialRectangle;html=1;whiteSpace=wrap;connectable=0;strokeColor=#b85450;overflow=hidden;fillColor=#FF9999;top=1;left=1;bottom=1;right=1;pointerEvents=1;" vertex="1" parent="872">
                    <mxGeometry x="80" width="20" height="20" as="geometry">
                        <mxRectangle width="20" height="20" as="alternateBounds"/>
                    </mxGeometry>
                </mxCell>
                <mxCell id="878" style="shape=partialRectangle;html=1;whiteSpace=wrap;connectable=0;strokeColor=#b85450;overflow=hidden;fillColor=#FF9999;top=1;left=1;bottom=1;right=1;pointerEvents=1;" vertex="1" parent="872">
                    <mxGeometry x="100" width="20" height="20" as="geometry">
                        <mxRectangle width="20" height="20" as="alternateBounds"/>
                    </mxGeometry>
                </mxCell>
                <mxCell id="829" value="" style="edgeStyle=none;html=1;" edge="1" parent="1" source="830" target="757">
                    <mxGeometry relative="1" as="geometry"/>
                </mxCell>
                <mxCell id="830" value="" style="shape=sumEllipse;perimeter=ellipsePerimeter;whiteSpace=wrap;html=1;backgroundOutline=1;" vertex="1" parent="1">
                    <mxGeometry x="930" y="430" width="20" height="20" as="geometry"/>
                </mxCell>
                <mxCell id="831" value="" style="edgeStyle=none;html=1;entryX=0.5;entryY=1;entryDx=0;entryDy=0;exitX=0.5;exitY=0;exitDx=0;exitDy=0;" edge="1" parent="1" source="779" target="797">
                    <mxGeometry relative="1" as="geometry">
                        <mxPoint x="750" y="160" as="sourcePoint"/>
                        <mxPoint x="810" y="160" as="targetPoint"/>
                    </mxGeometry>
                </mxCell>
                <mxCell id="832" value="" style="edgeStyle=none;html=1;entryX=0.003;entryY=1.003;entryDx=0;entryDy=0;exitX=1;exitY=0.5;exitDx=0;exitDy=0;entryPerimeter=0;" edge="1" parent="1" source="797" target="739">
                    <mxGeometry relative="1" as="geometry">
                        <mxPoint x="820" y="250" as="sourcePoint"/>
                        <mxPoint x="820" y="170" as="targetPoint"/>
                    </mxGeometry>
                </mxCell>
                <mxCell id="833" value="" style="edgeStyle=none;html=1;entryX=0;entryY=0;entryDx=0;entryDy=0;exitX=0.997;exitY=1.003;exitDx=0;exitDy=0;exitPerimeter=0;entryPerimeter=0;" edge="1" parent="1" source="739" target="817">
                    <mxGeometry relative="1" as="geometry">
                        <mxPoint x="830" y="160" as="sourcePoint"/>
                        <mxPoint x="890" y="160" as="targetPoint"/>
                    </mxGeometry>
                </mxCell>
                <mxCell id="834" value="" style="edgeStyle=none;html=1;entryX=0;entryY=0.5;entryDx=0;entryDy=0;exitX=1;exitY=1;exitDx=0;exitDy=0;" edge="1" parent="1" source="714" target="830">
                    <mxGeometry relative="1" as="geometry">
                        <mxPoint x="770" y="390" as="sourcePoint"/>
                        <mxPoint x="810" y="390" as="targetPoint"/>
                    </mxGeometry>
                </mxCell>
                <mxCell id="835" value="" style="edgeStyle=none;html=1;entryX=0.5;entryY=0;entryDx=0;entryDy=0;exitX=0.498;exitY=1.002;exitDx=0;exitDy=0;exitPerimeter=0;" edge="1" parent="1" source="872" target="830">
                    <mxGeometry relative="1" as="geometry">
                        <mxPoint x="750" y="400" as="sourcePoint"/>
                        <mxPoint x="930" y="400" as="targetPoint"/>
                        <Array as="points">
                            <mxPoint x="1100" y="260"/>
                            <mxPoint x="940" y="260"/>
                        </Array>
                    </mxGeometry>
                </mxCell>
                <mxCell id="836" value="" style="edgeStyle=none;html=1;exitX=1;exitY=0;exitDx=0;exitDy=0;" edge="1" parent="1" source="675" target="778">
                    <mxGeometry relative="1" as="geometry"/>
                </mxCell>
                <mxCell id="837" value="K" style="text;html=1;align=center;verticalAlign=middle;whiteSpace=wrap;rounded=0;fontSize=16;" vertex="1" parent="1">
                    <mxGeometry x="650" y="285" width="30" height="30" as="geometry"/>
                </mxCell>
                <mxCell id="838" value="V" style="text;html=1;align=center;verticalAlign=middle;whiteSpace=wrap;rounded=0;fontSize=16;" vertex="1" parent="1">
                    <mxGeometry x="650" y="425" width="30" height="30" as="geometry"/>
                </mxCell>
                <mxCell id="839" value="Q" style="text;html=1;align=center;verticalAlign=middle;whiteSpace=wrap;rounded=0;fontSize=16;" vertex="1" parent="1">
                    <mxGeometry x="650" y="145" width="30" height="30" as="geometry"/>
                </mxCell>
                <mxCell id="883" value="Q" style="text;html=1;align=center;verticalAlign=middle;whiteSpace=wrap;rounded=0;fontSize=16;" vertex="1" parent="1">
                    <mxGeometry x="650" y="615" width="30" height="30" as="geometry"/>
                </mxCell>
                <mxCell id="884" value="K" style="text;html=1;align=center;verticalAlign=middle;whiteSpace=wrap;rounded=0;fontSize=16;" vertex="1" parent="1">
                    <mxGeometry x="650" y="755" width="30" height="30" as="geometry"/>
                </mxCell>
                <mxCell id="885" value="V" style="text;html=1;align=center;verticalAlign=middle;whiteSpace=wrap;rounded=0;fontSize=16;" vertex="1" parent="1">
                    <mxGeometry x="650" y="905" width="30" height="30" as="geometry"/>
                </mxCell>
            </root>
        </mxGraphModel>
    </diagram>
</mxfile>
